<?xml version="1.0" standalone="no"?>
<!DOCTYPE svg PUBLIC "-//W3C//DTD SVG 20010904//EN"
 "http://www.w3.org/TR/2001/REC-SVG-20010904/DTD/svg10.dtd">
<svg version="1.0" xmlns="http://www.w3.org/2000/svg"
 width="720.000000pt" height="960.000000pt" viewBox="0 0 720.000000 960.000000"
 preserveAspectRatio="xMidYMid meet">

<g transform="translate(0.000000,960.000000) scale(0.100000,-0.100000)"
fill="#000000" stroke="none">
<path d="M180 9573 c0 -16 5 -57 10 -93 9 -66 46 -404 49 -450 1 -14 2 -33 4
-42 1 -9 -2 -17 -6 -17 -5 0 -14 -7 -21 -16 -6 -9 -18 -15 -26 -13 -9 2 -16
-6 -18 -19 -2 -16 2 -23 13 -23 24 0 31 -31 10 -46 -17 -13 -16 -14 9 -23 32
-13 32 -17 4 -47 -64 -65 -63 -64 -43 -64 17 0 17 -2 -4 -17 -17 -11 -28 -13
-40 -6 -33 20 -112 63 -116 63 -3 0 -5 -1971 -5 -4380 l0 -4380 1354 0 c1074
0 1355 3 1359 13 4 10 6 10 6 0 1 -10 456 -13 2241 -13 l2240 0 0 4800 0 4800
-2275 0 -2275 0 0 -27 c0 -16 7 -201 14 -413 19 -490 19 -536 4 -560 -10 -15
-9 -26 5 -55 24 -50 21 -70 -10 -94 -22 -16 -24 -20 -10 -21 27 0 20 -16 -14
-31 -30 -12 -30 -13 -13 -26 11 -8 29 -11 42 -8 26 6 25 15 27 -145 2 -69 5
-165 8 -215 3 -49 8 -229 12 -400 3 -170 8 -352 11 -403 l5 -94 -23 8 c-27 8
-47 32 -48 56 0 9 -10 20 -22 24 -13 3 -31 13 -40 21 -10 9 -24 13 -32 10 -11
-4 -14 1 -14 21 1 47 -2 66 -9 59 -3 -4 -12 -2 -20 4 -10 9 -13 6 -14 -12 -3
-34 -14 59 -33 271 -9 102 -21 210 -27 240 -13 74 -59 166 -109 218 -56 58
-134 77 -320 81 -74 1 -139 7 -144 11 -5 5 21 7 61 3 53 -4 78 -2 104 10 19 9
49 15 66 12 18 -2 36 1 39 7 9 14 -41 58 -66 58 -32 0 -50 11 -50 31 0 10 -6
19 -14 19 -8 0 -17 13 -21 30 -8 38 -24 48 -41 25 -8 -10 -15 -17 -16 -14 -21
33 -28 51 -23 59 3 5 -3 14 -14 19 -17 9 -20 7 -26 -18 -8 -36 -35 -49 -52
-25 -11 15 -9 19 10 28 18 10 23 21 25 68 3 51 5 56 30 62 44 9 56 21 43 42
-10 18 -10 18 -11 -2 0 -11 -6 -21 -12 -21 -7 0 -30 -4 -50 -8 -31 -6 -38 -4
-38 9 0 8 -9 20 -20 26 -17 9 -22 7 -32 -15 -11 -25 -28 -34 -28 -15 0 6 -5
10 -11 10 -5 0 -9 -12 -8 -27 2 -36 -10 -73 -25 -73 -6 0 -20 17 -31 37 -22
41 -42 45 -37 8 2 -14 0 -25 -5 -25 -16 1 -53 39 -63 64 -8 22 -7 28 8 32 9 3
25 10 35 15 15 8 17 6 11 -16 -3 -14 -2 -25 4 -25 5 0 12 11 14 25 3 14 1 25
-3 25 -5 0 -9 8 -9 18 0 24 -19 42 -37 35 -12 -5 -14 -1 -8 15 5 17 2 22 -11
22 -13 0 -15 -6 -11 -29 8 -37 -1 -45 -31 -25 -22 14 -25 14 -43 -2 -18 -16
-19 -16 -19 2 0 43 -22 45 -56 6 l-32 -37 -12 26 c-7 15 -23 33 -36 40 -14 7
-28 26 -33 43 -5 17 -10 25 -10 19 -1 -7 -5 -13 -10 -13 -11 0 -94 80 -88 86
8 9 37 -8 37 -22 0 -8 4 -14 8 -14 8 0 9 82 2 105 -7 21 11 43 31 38 16 -5 19
0 19 32 0 36 -1 37 -18 22 -10 -10 -22 -17 -25 -17 -11 0 -8 58 4 65 14 9 47
-22 51 -48 4 -25 38 -37 38 -13 0 18 25 22 35 6 12 -20 24 -10 16 13 -4 12 -6
29 -4 37 2 8 -4 5 -13 -7 -19 -26 -34 -30 -34 -9 0 8 -9 16 -21 18 -19 3 -30
17 -59 79 -15 32 -44 47 -87 44 -25 -1 -33 2 -33 15 0 10 6 18 13 17 30 -1 48
4 43 11 -3 5 -27 8 -53 6 -57 -3 -83 9 -83 37 0 27 -30 120 -45 139 -7 8 -15
23 -18 33 -4 10 -11 15 -17 12 -5 -3 -10 -1 -10 4 0 6 -6 11 -14 11 -8 0 -16
10 -18 22 -2 11 -10 22 -18 23 -9 2 -38 13 -65 25 -71 32 -144 27 -275 -19
-42 -15 -58 -26 -67 -48 -6 -15 -25 -41 -41 -57 -28 -26 -31 -27 -40 -10 -5
11 -15 79 -22 152 l-12 132 -104 0 -104 0 0 -27z m4659 -102 c11 -27 21 -56
21 -64 0 -8 6 -20 14 -27 8 -6 12 -17 10 -25 -3 -7 3 -15 13 -18 16 -4 16 -5
1 -6 -20 -1 -68 75 -68 108 0 12 -7 35 -15 51 -9 17 -11 30 -6 30 4 0 18 -22
30 -49z m1130 -26 c-1 -15 -4 -13 -14 10 -8 17 -14 39 -14 50 1 15 4 13 14
-10 8 -16 14 -39 14 -50z m-1209 15 c0 -20 -2 -22 -10 -10 -5 8 -10 26 -10 40
0 20 2 22 10 10 5 -8 10 -26 10 -40z m-61 19 c7 11 10 9 16 -8 3 -11 4 -25 1
-30 -4 -5 -2 -11 2 -13 13 -5 23 -68 12 -68 -6 0 -10 11 -10 25 0 13 -8 32
-19 42 -10 10 -22 29 -25 43 -6 19 -5 22 3 10 9 -13 12 -13 20 -1z m105 -40
c-3 -5 -1 -9 4 -9 5 0 12 -12 15 -27 3 -16 9 -41 13 -58 l7 -30 -23 28 c-27
34 -37 69 -31 116 3 33 4 34 12 13 5 -13 7 -28 3 -33z m766 -76 c13 -27 26
-52 28 -57 3 -5 0 -6 -6 -2 -12 7 -72 108 -72 121 0 17 28 -18 50 -62z m-501
12 c0 -5 -4 -3 -9 5 -5 8 -9 22 -9 30 0 16 17 -16 18 -35z m465 -11 c10 -25
27 -53 37 -63 10 -9 23 -30 29 -46 11 -28 9 -28 -28 12 -22 23 -43 39 -46 36
-11 -11 -6 -21 13 -26 10 -2 24 -14 31 -27 10 -19 10 -21 -7 -12 -10 6 -25 18
-33 29 -24 28 -63 104 -57 110 3 3 13 -12 23 -33 9 -22 18 -34 21 -27 2 7 0
21 -6 32 -13 23 -15 61 -3 61 4 0 15 -21 26 -46z m428 4 c-5 -30 -6 -31 -13
-10 -5 12 -14 22 -21 22 -8 1 -5 6 6 15 26 20 34 12 28 -27z m-913 -32 c1 7 8
15 17 18 15 6 15 4 2 -16 -9 -13 -22 -24 -31 -26 -12 -3 -15 7 -15 45 l0 48
13 -40 c7 -22 13 -35 14 -29z m56 54 c3 -5 1 -10 -4 -10 -6 0 -11 5 -11 10 0
6 2 10 4 10 3 0 8 -4 11 -10z m543 -38 c6 -9 12 -23 12 -31 -1 -13 -4 -12 -15
3 -8 11 -15 23 -15 28 0 4 -5 8 -11 8 -6 0 -1 -15 10 -34 28 -45 28 -60 -1
-46 l-23 11 23 -20 c12 -10 22 -27 22 -37 0 -35 -43 26 -46 65 -1 20 -5 47 -9
60 -7 21 -6 23 16 16 13 -4 30 -14 37 -23z m-475 11 c-7 -2 -19 -2 -25 0 -7 3
-2 5 12 5 14 0 19 -2 13 -5z m24 -29 c3 3 20 -5 37 -18 17 -13 39 -26 49 -29
9 -4 17 -12 17 -19 0 -8 -3 -9 -8 -3 -4 6 -16 11 -27 13 -34 6 -155 64 -150
73 3 4 22 1 41 -7 20 -8 38 -13 41 -10z m-240 -16 c-3 -7 -5 -2 -5 12 0 14 2
19 5 13 2 -7 2 -19 0 -25z m-212 12 c3 -5 1 -10 -4 -10 -6 0 -11 5 -11 10 0 6
2 10 4 10 3 0 8 -4 11 -10z m393 -25 c15 -8 55 -28 90 -44 35 -17 70 -38 79
-47 16 -16 15 -16 -7 -9 -14 4 -30 13 -36 20 -5 8 -22 17 -37 20 -15 4 -27 11
-27 15 0 12 -58 30 -98 30 -29 0 -33 2 -22 15 16 19 25 19 58 0z m846 -21 c10
-4 16 -18 16 -37 0 -29 -1 -30 -13 -12 -15 22 -28 55 -23 55 3 0 11 -3 20 -6z
m-865 -22 c27 -1 50 -8 60 -18 15 -16 14 -16 -4 -9 -11 4 -47 10 -80 12 -33 3
-62 7 -65 9 -8 9 24 23 35 15 5 -4 30 -8 54 -9z m309 -119 c13 -24 18 -50 15
-70 -6 -37 -23 -45 -23 -10 0 16 -3 18 -9 8 -17 -26 -32 0 -31 52 1 29 -1 68
-5 87 l-7 35 21 -32 c11 -17 29 -49 39 -70z m322 77 c0 -5 -4 -10 -10 -10 -5
0 -10 5 -10 10 0 6 5 10 10 10 6 0 10 -4 10 -10z m-512 -31 c-7 -5 -22 -8 -33
-8 -17 1 -17 2 -2 6 9 2 17 8 17 13 0 5 7 7 16 3 13 -5 13 -7 2 -14z m366 15
c12 -5 13 -9 3 -25 -14 -22 -32 -26 -23 -4 3 8 -2 19 -12 24 -16 10 -16 10 0
11 9 0 23 -3 32 -6z m384 -16 c13 -25 12 -129 0 -121 -5 2 -8 -1 -8 -8 0 -23
-18 4 -24 36 -4 17 -3 23 1 13 6 -12 12 -15 22 -8 12 7 12 11 2 24 -14 17 -24
86 -12 86 4 0 13 -10 19 -22z m-308 -27 c-39 -51 -45 -58 -67 -63 -33 -9 -30
21 7 64 23 27 36 34 55 30 l25 -4 -20 -27z m60 4 c-7 -8 -20 -15 -29 -15 -12
1 -11 5 8 21 26 22 41 18 21 -6z m30 -13 c0 -9 -25 -33 -49 -47 -10 -6 -12 -4
-6 6 20 35 55 60 55 41z m-80 -22 c0 -5 -5 -10 -11 -10 -5 0 -7 5 -4 10 3 6 8
10 11 10 2 0 4 -4 4 -10z m-4588 -47 c10 -9 18 -22 18 -30 0 -18 -49 16 -50
35 0 16 10 15 32 -5z m4218 7 c12 0 20 -39 9 -46 -5 -3 -9 -1 -9 5 0 6 -7 8
-15 5 -8 -4 -15 -2 -15 4 0 6 -3 18 -7 28 -5 14 -3 16 11 11 10 -4 21 -7 26
-7z m251 -14 c-15 -18 -49 -27 -57 -15 -3 5 4 9 15 9 11 0 23 5 26 10 3 6 11
10 17 10 7 0 7 -5 -1 -14z m229 5 c0 -4 11 -6 25 -3 14 2 25 2 25 -1 0 -16
-54 -57 -73 -56 -19 1 -18 2 8 15 l30 15 -38 -6 c-26 -4 -37 -3 -32 4 3 6 12
11 20 11 8 0 17 5 21 11 4 8 -4 9 -27 4 -40 -8 -59 -22 -44 -33 15 -11 14 -52
-2 -52 -8 0 -11 5 -7 12 5 8 2 9 -9 5 -24 -9 -22 18 4 54 17 24 28 29 60 29
21 0 39 -4 39 -9z m-4560 -31 c0 -5 -4 -10 -10 -10 -5 0 -10 5 -10 10 0 6 5
10 10 10 6 0 10 -4 10 -10z m4060 -25 c0 -2 -7 -5 -15 -9 -9 -3 -15 0 -15 9 0
9 6 12 15 9 8 -4 15 -7 15 -9z m395 -102 c8 -43 17 -35 40 37 l18 55 15 -34
c7 -19 14 -59 15 -88 1 -51 17 -78 17 -30 1 21 2 20 16 -6 22 -41 46 -210 31
-219 -8 -5 -13 6 -15 37 -2 25 -8 45 -14 45 -6 0 -8 -13 -4 -35 8 -41 -14 -85
-31 -63 -6 7 -14 27 -18 43 -7 27 -8 28 -15 10 -10 -23 -10 -23 -16 29 -3 21
-11 52 -19 70 -12 24 -14 25 -9 6 14 -58 16 -85 6 -75 -9 9 -31 113 -47 220
-3 22 -10 47 -16 55 -8 13 -12 12 -24 -4 -18 -24 -19 -16 -3 20 l12 26 27 -32
c15 -18 30 -48 34 -67z m283 85 c18 -18 15 -28 -8 -28 -13 0 -20 7 -20 20 0
23 10 26 28 8z m-648 -8 c0 -5 -7 -10 -16 -10 -8 0 -12 5 -9 10 3 6 10 10 16
10 5 0 9 -4 9 -10z m87 -7 c-9 -9 -20 -13 -24 -9 -4 4 -1 11 7 16 25 16 35 11
17 -7z m563 -43 c0 -3 -15 -21 -34 -39 -29 -28 -34 -30 -29 -13 3 12 9 19 14
16 5 -3 9 0 9 5 0 6 -5 11 -10 11 -7 0 -6 5 1 13 12 13 49 18 49 7z m-4762
-42 c-6 -18 -28 -21 -28 -4 0 9 7 16 16 16 9 0 14 -5 12 -12z m4427 -56 c-5
-14 -8 -14 -15 -2 -7 11 -11 11 -24 1 -20 -17 -20 -12 0 30 8 19 13 24 11 12
-3 -15 -1 -20 9 -16 8 3 15 15 15 27 2 15 3 13 6 -7 3 -16 2 -36 -2 -45z m-71
43 c-4 -8 -11 -15 -16 -15 -6 0 -5 6 2 15 7 8 14 15 16 15 2 0 1 -7 -2 -15z
m440 -41 c9 -22 8 -24 -9 -18 -8 4 -15 12 -15 20 0 19 16 18 24 -2z m-4784
-41 c-1 -19 -18 -33 -33 -27 -26 10 -20 34 8 34 14 0 25 -3 25 -7z m4787 -35
c-3 -8 -6 -5 -6 6 -1 11 2 17 5 13 3 -3 4 -12 1 -19z m-34 -11 c-23 -10 -53
-4 -53 11 0 4 17 6 38 4 34 -4 35 -6 15 -15z m-51 -49 c-8 -8 -9 -4 -5 13 4
13 8 18 11 10 2 -7 -1 -18 -6 -23z m88 18 c0 -12 -49 -30 -58 -21 -3 2 34 25
56 34 1 1 2 -5 2 -13z m-8 -58 c-6 -6 -15 -8 -19 -4 -4 4 -1 11 7 16 19 12 27
3 12 -12z m-47 -8 c18 -1 19 -1 2 -11 -13 -7 -21 -6 -32 5 -8 8 -15 18 -15 22
0 5 5 3 12 -4 7 -7 21 -12 33 -12z m-235 -41 c0 -6 -4 -7 -10 -4 -5 3 -10 11
-10 16 0 6 5 7 10 4 6 -3 10 -11 10 -16z m-5520 7 c0 -3 -4 -8 -10 -11 -5 -3
-10 -1 -10 4 0 6 5 11 10 11 6 0 10 -2 10 -4z m5740 -17 c0 -11 -4 -18 -10
-14 -5 3 -7 12 -3 20 7 21 13 19 13 -6z m-4660 -8 c0 -6 -4 -13 -10 -16 -5 -3
-10 1 -10 9 0 9 5 16 10 16 6 0 10 -4 10 -9z m3772 -16 c0 -5 -5 -11 -11 -13
-6 -2 -11 4 -11 13 0 9 5 15 11 13 6 -2 11 -8 11 -13z m705 -6 c9 -9 8 -15 -2
-25 -19 -20 -23 -18 -21 11 1 28 6 31 23 14z m-4412 -19 c18 -19 17 -20 -3
-20 -12 0 -26 9 -32 20 -8 16 -8 20 3 20 8 0 22 -9 32 -20z m85 6 c0 -3 -4 -8
-10 -11 -5 -3 -10 -1 -10 4 0 6 5 11 10 11 6 0 10 -2 10 -4z m98 -8 c18 -18
14 -30 -8 -23 -22 7 -26 -5 -8 -23 9 -9 10 -15 2 -20 -6 -4 -19 -22 -28 -40
-22 -44 -26 -38 -15 20 4 27 6 55 2 64 -10 27 32 45 55 22z m3625 -5 c-7 -2
-19 -2 -25 0 -7 3 -2 5 12 5 14 0 19 -2 13 -5z m82 -61 c5 -12 17 -22 26 -22
29 0 69 -46 69 -80 0 -16 4 -30 9 -30 25 0 30 -149 6 -187 -8 -12 -11 -23 -6
-25 4 -2 11 -30 14 -63 3 -33 2 -54 -2 -47 -10 16 -41 -27 -41 -57 0 -30 -19
-36 -29 -9 -8 20 -10 17 -10 -19 -1 -23 3 -43 8 -45 12 -4 17 -105 7 -135 -5
-16 -15 -23 -32 -23 -14 0 -24 -6 -24 -14 0 -8 -7 -16 -15 -20 -18 -7 -75 13
-75 26 0 5 -12 7 -27 4 -16 -3 -35 -2 -43 4 -13 8 -12 10 5 10 52 0 -24 27
-155 55 -75 16 -110 36 -110 63 0 8 -6 12 -15 8 -19 -7 -19 13 -1 39 7 11 16
37 20 58 4 21 13 37 21 37 7 0 24 19 38 43 14 23 36 49 50 56 13 7 35 32 47
55 44 78 80 95 80 36 0 -47 9 -60 45 -60 32 0 32 1 38 58 5 44 3 60 -8 68 -19
14 -19 34 0 34 8 0 21 15 28 33 13 30 14 31 21 10 4 -13 14 -23 22 -23 8 0 19
-11 24 -25 14 -36 27 -31 35 15 7 40 -12 90 -35 90 -22 0 -36 29 -32 69 3 32
8 41 21 39 9 -2 20 -13 26 -26z m-125 -23 c0 -6 9 -8 20 -4 30 9 25 -15 -9
-53 -17 -17 -39 -32 -50 -32 -13 0 -18 -5 -15 -17 5 -17 -4 -28 -73 -92 -18
-17 -33 -34 -33 -38 0 -5 -25 -32 -55 -60 -30 -29 -55 -55 -55 -59 0 -8 -43
-43 -55 -44 -31 -2 -144 -160 -114 -160 7 0 8 -11 4 -29 -4 -17 -2 -32 5 -36
15 -9 -23 -41 -66 -55 -19 -7 -34 -18 -34 -26 0 -8 -6 -14 -12 -14 -7 0 -21
-16 -30 -35 -16 -32 -16 -39 -3 -73 14 -34 14 -41 0 -68 -8 -16 -15 -36 -15
-45 0 -8 -6 -24 -14 -35 -10 -13 -13 -34 -9 -64 3 -25 0 -62 -5 -83 -14 -49
-8 -63 27 -70 18 -4 31 -14 34 -28 4 -16 11 -20 28 -16 16 4 31 -5 64 -40 25
-26 41 -52 39 -61 -5 -22 15 -53 23 -34 7 17 23 15 23 -3 0 -24 34 -47 76 -52
114 -12 163 5 188 67 9 22 20 40 25 40 15 0 21 29 11 55 -9 25 -35 34 -42 15
-2 -5 -19 -7 -39 -4 -34 6 -35 8 -25 30 6 13 16 23 21 23 6 -1 22 -1 37 0 21
1 25 5 21 21 -3 12 1 22 11 26 9 3 16 16 16 29 0 13 7 26 16 29 13 5 15 15 11
49 -5 32 -4 36 3 19 9 -20 12 -21 32 -11 41 22 56 49 51 98 -2 25 -5 52 -5 59
-1 6 -7 12 -14 12 -7 0 -26 11 -42 25 -17 14 -35 25 -41 25 -15 0 -14 20 2 20
6 1 2 9 -10 19 -21 18 -21 18 30 13 29 -2 63 -11 77 -20 21 -13 22 -16 8 -26
-15 -9 -14 -11 5 -21 12 -6 21 -19 21 -28 -1 -9 2 -17 7 -17 5 0 9 -18 9 -40
0 -42 14 -54 23 -20 3 11 10 20 17 20 7 0 14 -9 17 -20 8 -29 23 -24 24 8 1
23 2 22 10 -10 5 -23 5 -48 -1 -63 -5 -14 -7 -31 -4 -39 5 -14 -3 -66 -30
-181 -14 -58 -14 -59 -16 -20 -1 38 -17 91 -20 70 -1 -5 -4 -23 -7 -40 -2 -16
-5 -58 -6 -92 -1 -33 -5 -59 -8 -57 -3 2 -11 -21 -18 -50 -8 -38 -18 -56 -34
-64 -20 -9 -89 -60 -191 -140 -22 -18 -53 -37 -68 -43 -16 -6 -28 -14 -28 -19
0 -4 -9 -10 -20 -13 -13 -3 -18 -1 -13 6 4 6 0 8 -10 4 -36 -14 -63 48 -32 73
10 8 15 30 15 61 0 51 -14 62 -50 39 -12 -8 -11 -10 8 -10 19 0 22 -5 22 -40
0 -22 -4 -40 -10 -40 -5 0 -10 7 -10 15 0 8 -9 20 -20 27 -11 7 -20 18 -20 25
0 8 -13 13 -30 13 -38 0 -79 26 -91 57 -5 13 -17 23 -27 23 -11 0 -34 7 -52
16 -27 14 -34 14 -41 3 -6 -9 -4 -15 6 -17 9 -2 13 -7 10 -12 -3 -5 6 -17 20
-27 58 -41 63 -47 54 -70 -5 -15 -17 -23 -32 -23 -31 0 -47 18 -47 52 0 33
-20 38 -21 6 0 -16 -4 -10 -13 17 -7 22 -18 50 -24 62 -11 20 -10 22 4 16 14
-5 16 -2 12 14 -4 15 0 23 13 26 29 8 23 30 -11 45 l-30 14 5 105 c5 82 3 111
-10 135 -8 17 -15 40 -15 50 0 11 -4 17 -9 13 -13 -7 -19 19 -21 93 -1 63 -9
88 -61 200 -16 34 -29 67 -29 74 0 6 -33 44 -74 84 -41 39 -82 86 -90 103 -9
17 -21 31 -26 31 -6 0 -10 9 -10 20 0 11 -4 20 -9 20 -8 0 -31 52 -31 71 0 4
14 15 32 24 26 13 38 13 60 4 15 -6 28 -16 28 -21 0 -6 11 -8 25 -6 14 3 25 1
25 -4 0 -6 7 -8 15 -4 8 3 15 1 15 -4 0 -6 11 -10 25 -10 24 0 25 2 25 64 0
73 11 108 43 142 28 30 67 32 67 4 0 -12 7 -32 16 -45 8 -13 15 -32 14 -42 -1
-10 -2 -38 -1 -62 1 -39 3 -42 17 -30 9 7 20 22 24 34 8 17 9 18 9 2 1 -24 21
-11 21 13 0 14 10 21 36 26 25 4 38 14 44 30 5 13 16 24 24 24 8 0 19 12 24
28 7 17 11 21 11 10 1 -21 28 -23 50 -4 9 7 26 17 39 20 18 6 22 3 22 -13 0
-28 26 -27 41 1 l11 21 17 -22 17 -22 12 26 c15 33 15 52 0 58 -8 3 -6 8 7 13
11 4 23 12 27 18 4 7 19 4 44 -7 36 -18 37 -18 75 8 21 14 46 25 54 25 9 0 14
4 10 9 -3 5 3 12 12 14 32 8 43 7 43 -4z m-3700 -41 c0 -16 -20 -7 -30 12 -10
19 -10 20 9 8 12 -7 21 -16 21 -20z m424 23 c3 -4 -7 -25 -22 -44 -31 -42 -58
-49 -48 -14 3 12 6 28 6 35 0 20 54 39 64 23z m-314 -11 c0 -5 -4 -10 -9 -10
-6 0 -13 5 -16 10 -3 6 1 10 9 10 9 0 16 -4 16 -10z m4120 -10 c0 -5 -4 -10
-10 -10 -5 0 -10 5 -10 10 0 6 5 10 10 10 6 0 10 -4 10 -10z m-3930 -73 c0 -5
13 -7 30 -4 16 4 32 2 35 -3 10 -17 -36 -32 -77 -26 -56 9 -63 0 -30 -42 16
-20 32 -45 35 -56 6 -14 10 -16 21 -7 18 15 81 7 81 -10 0 -10 -11 -13 -40
-11 -36 2 -42 -1 -58 -29 -22 -39 -42 -33 -42 14 -1 20 -6 42 -13 49 -9 9 -12
5 -12 -22 0 -65 -15 -70 -60 -20 -22 24 -40 50 -40 56 0 31 21 64 40 64 11 0
20 5 20 12 0 26 32 47 71 45 21 -1 39 -5 39 -10z m80 -47 c0 -5 -4 -10 -10
-10 -5 0 -10 5 -10 10 0 6 5 10 10 10 6 0 10 -4 10 -10z m97 -15 c8 -22 -6
-33 -17 -15 -13 20 -12 30 0 30 6 0 13 -7 17 -15z m4963 5 c0 -5 -9 -14 -20
-20 -22 -12 -27 -1 -8 18 14 14 28 16 28 2z m190 -95 c0 -9 -9 -15 -25 -15
-29 0 -34 16 -7 23 30 8 32 7 32 -8z m-5170 -35 c0 -5 -4 -10 -10 -10 -5 0
-10 5 -10 10 0 6 5 10 10 10 6 0 10 -4 10 -10z m-86 -59 c-17 -4 -51 -5 -75
-1 -38 7 -34 8 31 8 53 0 66 -2 44 -7z m-450 -112 c8 -24 17 -59 21 -77 7 -32
6 -34 -16 -27 -26 8 -39 22 -39 44 0 8 -7 22 -16 32 -14 16 -14 18 5 29 25 13
19 30 -10 30 -26 0 -24 15 4 27 26 12 29 8 51 -58z m803 41 c51 1 123 -23 123
-41 0 -12 51 -65 58 -60 11 6 52 -85 62 -140 12 -61 26 -377 16 -368 -13 13
-56 151 -50 162 4 7 4 9 -1 5 -4 -4 -16 -3 -25 2 -15 8 -20 4 -29 -20 -6 -17
-17 -30 -27 -30 -14 0 -14 3 -4 15 7 9 11 18 8 20 -11 11 -37 -8 -48 -36 -11
-25 -41 -42 -40 -21 1 12 35 48 57 60 20 11 51 78 40 88 -3 3 -14 0 -26 -7
-15 -10 -19 -20 -14 -38 l6 -25 -23 22 -23 22 -19 -31 c-15 -24 -24 -30 -40
-25 -12 3 -28 0 -35 -6 -14 -12 -43 -4 -43 12 0 5 9 10 20 10 26 0 25 8 -1 29
-19 15 -20 21 -10 40 12 21 11 22 -8 12 -27 -15 -31 -14 -31 9 0 11 -7 20 -15
20 -8 0 -15 7 -15 15 0 10 -8 7 -26 -10 -14 -13 -24 -32 -23 -42 2 -10 -1 -28
-5 -41 -5 -15 -3 -29 5 -38 11 -14 10 -15 -11 -12 -19 2 -25 9 -24 26 1 25 -6
28 -24 10 -17 -17 -22 -6 -15 36 5 30 9 37 24 33 26 -7 24 9 -6 38 -35 36 -65
33 -65 -5 0 -16 -4 -30 -8 -30 -5 0 -8 -23 -8 -50 0 -31 -6 -56 -15 -65 -8 -9
-47 -17 -98 -21 -77 -7 -87 -10 -109 -36 -29 -35 -41 -36 -34 -3 2 15 0 25 -7
25 -6 0 -12 -8 -12 -17 -1 -10 -2 -25 -3 -33 -1 -8 3 -21 8 -27 5 -8 4 -13 -2
-13 -11 0 -22 24 -22 50 0 10 -11 32 -25 49 l-26 30 23 12 22 12 -22 8 c-14 5
-22 17 -22 31 1 22 2 21 28 -9 24 -28 67 -53 91 -53 13 0 30 47 24 69 -7 26 4
26 42 1 40 -26 63 -25 70 3 10 39 -17 90 -83 153 -27 26 -18 34 37 37 29 1 41
6 44 19 6 22 30 23 52 2 22 -22 165 -21 178 2 11 19 47 18 47 -2 0 -14 7 -15
39 -10 33 5 42 3 54 -14 11 -16 16 -18 20 -7 7 19 67 28 67 11 0 -7 -6 -15
-12 -17 -7 -3 -3 -6 10 -6 12 -1 22 4 22 10 0 7 7 17 17 24 20 15 10 50 -12
41 -9 -3 -21 4 -30 18 -14 22 -21 23 -88 20 -40 -1 -83 -5 -96 -8 -13 -3 -43
-3 -68 1 -35 5 -47 11 -54 30 -11 28 -30 22 -22 -7 5 -17 0 -20 -26 -20 -20 0
-31 5 -31 14 0 8 -10 22 -22 30 -12 9 -19 19 -15 22 4 4 48 8 98 9 75 2 94 6
102 20 8 15 19 16 71 11 33 -4 85 -6 113 -6z m-405 -36 c5 -5 -19 -64 -27 -64
-2 0 -3 16 -3 35 0 32 14 46 30 29z m-122 -184 c25 -36 11 -40 -37 -10 -39 23
-42 40 -9 40 16 0 32 -11 46 -30z m-219 -63 c-8 -8 -11 -3 -11 19 1 25 2 27
11 11 8 -14 8 -22 0 -30z m3889 -60 c0 -12 -5 -29 -10 -37 -7 -11 -10 -3 -10
28 0 26 4 41 10 37 6 -3 10 -16 10 -28z m-3247 -64 c-3 -7 -8 -13 -13 -13 -14
0 -42 39 -35 49 9 15 54 -20 48 -36z m4837 -68 c0 -12 -16 -15 -89 -15 -80 0
-111 7 -96 22 3 3 46 6 95 7 74 1 90 -1 90 -14z m-4870 -255 c145 -17 269 -35
274 -40 17 -17 -145 -10 -404 18 -221 24 -245 29 -248 46 -5 22 -42 24 378
-24z m2885 -101 c11 -17 -1 -21 -15 -4 -8 9 -8 15 -2 15 6 0 14 -5 17 -11z
m331 -176 c-3 -10 -10 -39 -17 -65 -6 -27 -15 -48 -20 -48 -5 0 -9 -7 -9 -15
0 -8 -4 -15 -10 -15 -11 0 -14 23 -3 34 4 3 8 16 10 28 2 12 8 27 14 35 6 7 9
20 5 28 -3 9 -2 13 4 10 6 -3 10 1 10 9 0 9 5 16 11 16 6 0 8 -8 5 -17z m-82
-212 c-16 -15 -16 -15 -9 4 4 11 10 29 13 40 6 18 7 18 10 -4 2 -13 -4 -31
-14 -40z m-20 37 c-4 -7 -16 -23 -27 -35 -11 -13 -15 -23 -9 -23 7 0 12 -7 12
-15 0 -13 -5 -11 -22 5 l-23 22 35 29 c38 32 45 35 34 17z m1652 -30 c-3 -7
-9 -21 -12 -30 -8 -22 -25 -24 -19 -3 3 8 7 22 10 30 2 8 9 15 16 15 6 0 8 -6
5 -12z m-2198 -29 c-1 -17 -6 -33 -10 -35 -14 -9 -8 -44 7 -44 10 0 15 11 16
33 1 30 1 30 8 7 5 -14 5 -29 0 -34 -4 -5 -5 -15 -2 -22 3 -8 0 -14 -6 -14 -6
0 -11 -5 -11 -11 0 -5 5 -7 11 -3 8 5 10 -1 5 -19 -3 -14 -1 -29 4 -32 20 -13
1 -20 -52 -20 -40 0 -52 3 -50 14 2 8 -3 11 -12 8 -18 -7 -46 23 -45 49 0 14
3 12 11 -8 6 -18 17 -28 29 -28 17 0 20 6 17 33 -3 30 -6 32 -38 32 -31 -1
-36 2 -35 22 0 21 63 71 120 93 32 14 35 12 33 -21z m487 -33 c-4 -11 -9 -31
-12 -43 l-5 -22 -17 21 c-12 14 -22 18 -31 13 -11 -7 -9 -10 6 -17 13 -5 8 -6
-13 -2 -27 5 -33 2 -33 -13 0 -15 -2 -15 -9 -3 -7 10 -3 18 12 29 12 8 28 21
35 28 17 17 22 16 39 -4 13 -16 13 -16 3 5 -13 27 -5 43 16 35 11 -4 13 -13 9
-27z m1702 -19 c-6 -20 -27 -19 -27 2 0 14 5 19 15 14 9 -3 14 -10 12 -16z
m-5363 -182 c-4 -8 -8 -15 -10 -15 -2 0 -4 7 -4 15 0 8 4 15 10 15 5 0 7 -7 4
-15z m106 7 c0 -14 -66 -73 -74 -65 -4 4 -4 0 -1 -8 3 -9 -1 -21 -8 -28 -29
-24 -13 46 18 79 26 28 65 41 65 22z m30 -51 c0 -5 -7 -11 -15 -15 -15 -5 -20
5 -8 17 9 10 23 9 23 -2z m169 4 c-14 -13 -79 -34 -79 -25 0 6 10 15 23 20 23
9 64 13 56 5z m61 -16 c0 -6 -25 -37 -56 -69 -30 -32 -59 -71 -63 -86 -4 -15
-12 -29 -19 -32 -19 -6 -14 30 8 58 11 14 20 32 20 40 0 21 87 113 100 105 5
-3 10 -11 10 -16z m2594 6 c6 -16 -4 -55 -13 -55 -4 0 -11 3 -15 7 -11 11 -45
13 -51 3 -3 -6 -10 -10 -15 -10 -11 0 7 52 21 61 19 11 67 8 73 -6z m-2864
-45 c0 -5 -5 -10 -11 -10 -5 0 -7 5 -4 10 3 6 8 10 11 10 2 0 4 -4 4 -10z
m-310 -82 c0 -19 -2 -20 -10 -8 -13 19 -13 30 0 30 6 0 10 -10 10 -22z m90
-30 c0 -19 -15 -24 -24 -10 -3 5 -2 19 1 31 4 17 8 19 14 9 5 -7 9 -21 9 -30z
m-202 15 c-8 -10 -20 -27 -26 -38 -10 -18 -11 -15 -12 18 0 33 2 37 27 37 24
0 25 -1 11 -17z m62 -63 c0 -5 -15 -10 -32 -10 -25 0 -29 3 -18 10 20 13 50
13 50 0z m201 -130 c-21 -18 -51 -27 -51 -16 0 13 34 36 53 36 22 -1 22 -1 -2
-20z m3097 -47 c-2 -9 -8 -18 -15 -20 -7 -3 -9 3 -6 16 6 25 26 28 21 4z
m-3118 -69 c0 -14 -4 -22 -10 -19 -5 3 -10 17 -10 31 0 14 4 22 10 19 6 -3 10
-17 10 -31z m280 11 c0 -8 -7 -15 -15 -15 -8 0 -15 7 -15 15 0 8 7 15 15 15 8
0 15 -7 15 -15z m-537 -27 c-11 -13 -34 -40 -52 -60 -35 -38 -70 -43 -50 -7 5
10 15 19 22 19 7 0 30 16 52 35 46 40 57 45 28 13z m287 -2 c0 -3 -4 -8 -10
-11 -5 -3 -10 -1 -10 4 0 6 5 11 10 11 6 0 10 -2 10 -4z m-492 -31 c-1 -14 -9
-25 -16 -25 -9 0 -12 6 -8 16 3 9 6 20 6 25 0 5 4 9 10 9 5 0 9 -11 8 -25z
m2396 -11 c7 -19 2 -18 -19 6 -16 17 -16 20 -3 15 9 -4 19 -13 22 -21z m1306
-4 c0 -5 -4 -10 -10 -10 -5 0 -10 5 -10 10 0 6 5 10 10 10 6 0 10 -4 10 -10z
m-1220 -98 c0 -15 -69 57 -70 72 0 6 16 -5 35 -24 19 -19 35 -40 35 -48z
m-2090 43 c0 -14 -4 -25 -10 -25 -5 0 -10 11 -10 25 0 14 5 25 10 25 6 0 10
-11 10 -25z m50 1 c0 -2 -7 -7 -16 -10 -8 -3 -12 -2 -9 4 6 10 25 14 25 6z
m-450 -37 c0 -11 -4 -18 -10 -14 -5 3 -7 12 -3 20 7 21 13 19 13 -6z m3654 5
c4 -9 0 -27 -9 -40 -8 -13 -15 -30 -15 -39 0 -8 -4 -15 -8 -15 -5 0 -24 -21
-42 -47 -37 -53 -48 -63 -68 -63 -8 0 2 16 22 36 37 37 46 68 24 77 -8 3 -7 6
4 6 10 1 22 16 29 36 7 19 16 35 21 35 4 0 5 7 2 15 -4 10 0 15 14 15 11 0 23
-7 26 -16z m-3599 -4 c3 -5 -1 -10 -9 -10 -9 0 -16 5 -16 10 0 6 4 10 9 10 6
0 13 -4 16 -10z m79 -9 c3 -4 3 -11 0 -14 -8 -7 -44 4 -44 14 0 12 37 12 44 0z
m246 -25 c0 -17 -80 -106 -96 -106 -24 0 -16 24 26 70 22 25 40 48 40 52 0 12
30 -3 30 -16z m-335 -26 c3 -5 1 -10 -4 -10 -6 0 -11 5 -11 10 0 6 2 10 4 10
3 0 8 -4 11 -10z m-55 -49 c0 -5 -7 -14 -15 -21 -12 -10 -15 -10 -15 2 0 8 3
18 7 21 9 10 23 9 23 -2z m16 -126 c-3 -8 2 -19 12 -24 9 -5 14 -12 10 -16 -8
-9 -48 26 -48 42 0 7 7 13 16 13 10 0 14 -6 10 -15z m153 -21 c17 -4 31 -11
31 -17 0 -12 -110 -1 -124 13 -11 11 44 14 93 4z m-229 -128 c0 -3 -4 -8 -10
-11 -5 -3 -10 -1 -10 4 0 6 5 11 10 11 6 0 10 -2 10 -4z m35 -75 c3 -5 1 -12
-5 -16 -5 -3 -10 1 -10 9 0 18 6 21 15 7z m-19 -89 c-11 -10 -15 4 -8 28 l7
25 3 -23 c2 -13 1 -26 -2 -30z m2081 -8 c-3 -3 -12 -4 -19 -1 -8 3 -5 6 6 6
11 1 17 -2 13 -5z m-809 -46 c19 -19 14 -29 -8 -16 -20 13 -27 28 -12 28 4 0
13 -5 20 -12z m963 -9 c6 -12 26 -35 45 -52 19 -16 33 -36 30 -43 -3 -7 4 -16
15 -19 10 -4 19 -13 19 -21 0 -14 63 -185 80 -215 5 -9 11 -50 14 -90 3 -48 2
-60 -3 -34 -5 30 -9 36 -15 23 -6 -13 -13 -15 -33 -7 -26 9 -36 7 -66 -19 -35
-30 -177 -9 -197 29 -11 20 2 58 20 60 65 9 80 31 80 115 0 37 -18 84 -32 84
-5 0 -6 4 -3 10 11 19 -39 33 -78 22 -21 -6 -37 -9 -37 -7 0 2 16 19 35 39 31
33 61 86 70 126 2 8 4 16 4 18 1 1 10 2 21 2 10 0 24 -10 31 -21z m-235 -30
c-6 -39 -12 -46 -40 -46 -24 0 -24 0 -6 20 11 11 17 24 14 29 -8 12 3 25 21
25 12 0 15 -8 11 -28z m-658 -6 c5 -16 13 -37 17 -48 6 -14 -2 -10 -28 14 -41
38 -47 61 -18 61 12 0 23 -11 29 -27z m-168 -3 c0 -5 -5 -10 -11 -10 -5 0 -7
5 -4 10 3 6 8 10 11 10 2 0 4 -4 4 -10z m848 -19 c-7 -9 -13 -17 -14 -19 -1
-2 -1 8 0 21 0 15 6 23 14 20 10 -4 10 -9 0 -22z m52 26 c0 -2 -10 -12 -22
-23 l-23 -19 19 23 c18 21 26 27 26 19z m-860 -37 c0 -5 -3 -9 -7 -9 -5 1 -10
0 -13 -1 -3 -1 -20 -3 -37 -5 -46 -4 -41 13 5 18 20 2 40 4 45 5 4 1 7 -2 7
-8z m710 -15 c0 -8 16 -19 38 -24 33 -10 39 -8 55 12 25 30 9 0 -21 -40 -13
-18 -28 -31 -32 -28 -5 3 -13 -3 -19 -12 -8 -15 -10 -15 -11 -2 0 8 5 20 11
26 7 7 7 13 1 17 -6 3 -13 -7 -17 -24 -4 -16 -11 -30 -16 -30 -6 0 -6 -7 0
-18 9 -16 5 -18 -32 -16 -39 2 -42 4 -39 29 2 17 -1 24 -7 20 -6 -3 -11 -12
-11 -20 0 -8 -16 -16 -39 -20 -27 -4 -38 -11 -35 -20 3 -7 0 -16 -5 -20 -6 -3
-8 -12 -5 -18 4 -7 -1 -4 -11 5 -12 11 -15 22 -10 35 5 10 7 22 6 27 -1 5 4
13 11 17 10 7 10 9 1 9 -8 0 -13 14 -13 35 0 28 4 35 20 35 13 0 20 7 20 20 0
18 7 20 80 20 63 0 80 -3 80 -15z m-672 -16 c34 -12 49 -37 28 -45 -8 -3 -17
-20 -20 -38 -7 -36 1 -69 14 -61 4 3 10 -2 14 -10 3 -8 0 -17 -6 -21 -7 -5 -5
-12 8 -21 16 -12 17 -15 4 -23 -8 -5 -24 -10 -35 -10 -12 0 -26 -5 -33 -12
-16 -16 -38 15 -47 67 -5 31 -2 42 11 52 10 7 17 25 16 44 0 17 6 42 14 55 16
23 15 23 -23 19 -35 -4 -35 -4 -8 4 17 5 30 9 31 10 1 0 15 -4 32 -10z m-82
-106 c-4 -25 -25 -28 -23 -4 1 12 7 21 13 21 7 0 11 -8 10 -17z m949 -2 c-3
-6 -14 -11 -23 -11 -13 0 -13 2 4 14 21 15 30 14 19 -3z m60 -21 c3 -5 1 -10
-4 -10 -6 0 -11 5 -11 10 0 6 2 10 4 10 3 0 8 -4 11 -10z m-345 -10 c13 -9 13
-10 0 -10 -8 0 -22 5 -30 10 -13 9 -13 10 0 10 8 0 22 -5 30 -10z m60 0 c0 -5
-8 -10 -17 -10 -15 0 -16 2 -3 10 19 12 20 12 20 0z m-743 -82 c-16 -10 -21
-2 -13 19 6 15 9 15 16 3 6 -9 5 -17 -3 -22z m593 -138 c0 -5 -4 -10 -10 -10
-5 0 -10 5 -10 10 0 6 5 10 10 10 6 0 10 -4 10 -10z m-20 -39 c0 -11 -8 -26
-17 -33 -17 -12 -43 -51 -43 -63 0 -3 9 -5 20 -5 13 0 24 10 30 25 9 22 20 30
43 26 4 0 7 3 7 8 0 5 16 5 38 0 23 -5 38 -4 41 2 1 6 9 2 17 -8 8 -11 13 -13
14 -5 0 14 26 16 34 3 4 -5 3 -17 0 -26 -5 -12 -14 -15 -38 -10 -23 5 -27 4
-16 -4 13 -9 12 -11 -3 -11 -23 0 -89 -34 -106 -54 -8 -10 -24 -13 -49 -10
-23 2 -29 1 -17 -4 32 -11 85 -55 85 -69 0 -7 4 -13 9 -13 5 0 13 -9 16 -21 4
-13 12 -18 22 -15 11 5 13 2 9 -10 -3 -8 -6 -31 -6 -50 0 -24 -5 -34 -15 -34
-8 0 -15 -7 -15 -15 0 -8 7 -15 16 -15 8 0 12 5 9 10 -3 6 2 13 11 17 10 4 19
2 21 -3 2 -6 21 -9 43 -8 24 1 40 -3 40 -10 0 -6 5 -4 10 5 7 13 21 15 62 12
29 -2 59 -5 65 -8 7 -2 30 2 52 10 22 7 42 11 45 8 3 -4 6 -2 6 4 0 6 9 13 21
16 11 3 19 12 17 19 -4 20 76 90 95 82 9 -3 29 2 45 11 l29 17 -24 26 c-12 14
-23 35 -23 48 0 15 -5 22 -13 18 -7 -2 -32 2 -56 11 -24 8 -54 15 -67 15 -13
0 -24 4 -24 10 0 13 27 18 132 28 79 7 89 6 103 -11 9 -10 14 -25 11 -33 -7
-17 10 -19 18 -1 3 6 3 -13 -1 -43 -4 -30 -6 -92 -4 -137 3 -88 1 -90 -45 -73
-46 18 -57 6 -34 -35 25 -45 25 -45 -5 -45 -30 0 -31 -14 -5 -71 31 -69 28
-77 -24 -72 -51 6 -60 -3 -45 -46 17 -49 -6 -63 -104 -58 -42 2 -80 6 -83 9
-3 4 2 21 12 39 21 42 32 159 15 159 -15 0 -41 25 -41 39 0 15 -4 14 -55 -16
-52 -32 -61 -53 -45 -112 12 -45 2 -71 -27 -71 -8 0 -11 -4 -8 -10 11 -18 -22
-10 -40 10 -30 33 -48 26 -41 -16 4 -19 10 -43 14 -52 5 -15 4 -15 -12 1 -9 9
-27 17 -39 17 -22 1 -22 1 -3 15 19 14 18 15 -12 15 -26 0 -32 -4 -33 -22 -1
-22 -1 -22 -8 2 -7 25 -8 24 -15 -7 -10 -45 -49 -47 -65 -3 -7 20 -7 29 0 24
6 -4 9 16 8 54 -2 52 -5 62 -25 71 -25 11 -38 63 -39 161 0 44 -3 54 -15 52
-8 -2 -12 0 -8 3 4 4 1 19 -6 34 -20 40 -30 131 -14 131 10 0 10 2 -1 9 -10 7
-11 13 -2 30 9 17 9 22 -1 25 -7 2 -21 7 -30 10 -12 3 -18 0 -18 -10 0 -12 -4
-13 -20 -4 -11 6 -18 15 -15 20 3 4 -1 11 -7 14 -7 3 -3 3 8 1 13 -3 37 3 58
16 19 11 42 22 49 23 8 1 22 9 31 19 10 9 24 17 32 17 8 0 14 5 14 10 0 6 11
10 25 10 18 0 25 -5 25 -19z m425 -101 c3 -6 -1 -7 -9 -4 -18 7 -21 14 -7 14
6 0 13 -4 16 -10z m1811 -300 c-44 -127 -65 -176 -66 -155 0 11 66 211 89 269
6 16 14 26 17 23 3 -3 -15 -64 -40 -137z m-239 98 c-3 -8 -6 -5 -6 6 -1 11 2
17 5 13 3 -3 4 -12 1 -19z m0 -50 c-3 -8 -6 -5 -6 6 -1 11 2 17 5 13 3 -3 4
-12 1 -19z m-2418 -94 c-17 -24 -37 -44 -44 -44 -8 0 -17 -10 -21 -22 -11 -37
-25 -51 -36 -36 -7 10 -9 10 -5 -2 2 -8 13 -16 25 -18 12 -2 22 -7 22 -11 0
-12 -36 -42 -43 -35 -3 3 -3 -3 0 -15 5 -18 1 -21 -26 -21 -28 0 -31 3 -31 30
0 17 -4 30 -10 30 -5 0 -10 7 -10 15 0 8 7 15 15 15 8 0 15 5 15 10 0 6 -6 10
-14 10 -10 0 -14 10 -14 30 1 25 5 30 25 30 13 0 26 7 29 15 3 8 14 17 25 20
10 4 19 13 19 21 0 8 6 14 14 14 7 0 26 7 42 15 19 10 32 11 40 4 10 -8 6 -21
-17 -55z m3039 -39 c-2 -8 -41 -53 -87 -100 -68 -69 -82 -88 -70 -96 11 -8 9
-9 -6 -5 -16 5 -35 -8 -78 -51 -81 -81 -71 -50 13 38 39 41 103 111 143 155
66 75 93 94 85 59z m-531 -17 c-3 -8 -6 -5 -6 6 -1 11 2 17 5 13 3 -3 4 -12 1
-19z m517 -58 c-27 -28 -58 -56 -69 -62 -11 -6 7 17 40 51 33 33 64 61 69 61
5 0 -13 -23 -40 -50z m-627 -77 c-2 -21 -4 -4 -4 37 0 41 2 58 4 38 2 -21 2
-55 0 -75z m179 26 c-9 -19 -15 -29 -16 -22 0 15 22 64 27 60 2 -2 -3 -19 -11
-38z m-89 -1 c-3 -8 -6 -5 -6 6 -1 11 2 17 5 13 3 -3 4 -12 1 -19z m-10 -40
c-3 -8 -6 -5 -6 6 -1 11 2 17 5 13 3 -3 4 -12 1 -19z m-2767 -34 c6 -6 8 -18
4 -28 -5 -13 -9 -14 -21 -4 -11 9 -16 9 -24 -3 -7 -12 -9 -11 -9 3 0 9 -2 23
-5 30 -7 17 38 19 55 2z m2831 -11 c-12 -20 -14 -14 -5 12 4 9 9 14 11 11 3
-2 0 -13 -6 -23z m-590 0 c13 -16 12 -17 -3 -4 -17 13 -22 21 -14 21 2 0 10
-8 17 -17z m1159 13 c0 -6 -153 -118 -170 -124 -18 -7 35 39 104 90 47 34 66
44 66 34z m-1660 -52 c0 -2 -9 -4 -21 -4 -11 0 -18 4 -14 10 5 8 35 3 35 -6z
m54 -23 c4 -5 -3 -7 -14 -4 -23 6 -26 13 -6 13 8 0 17 -4 20 -9z m1645 -74
c-19 -13 -182 -87 -214 -97 -22 -7 -44 -16 -50 -20 -5 -4 -26 -11 -45 -14 -19
-4 24 20 97 54 73 33 147 69 165 80 21 12 36 16 42 10 5 -5 8 -11 5 -13z
m-279 -22 c-7 -9 -15 -13 -19 -10 -3 3 1 10 9 15 21 14 24 12 10 -5z m257 -97
c-3 -8 -6 -5 -6 6 -1 11 2 17 5 13 3 -3 4 -12 1 -19z m-47 -17 c0 -5 -13 -14
-30 -20 -18 -6 -30 -6 -30 0 0 5 9 9 20 9 11 0 20 5 20 10 0 6 5 10 10 10 6 0
10 -4 10 -9z m-290 -11 c-8 -5 -22 -9 -30 -9 -10 0 -8 3 5 9 27 12 43 12 25 0z
m195 -30 c-11 -5 -27 -9 -35 -9 -13 -1 -13 0 0 9 8 5 24 9 35 9 l20 0 -20 -9z
m145 1 c0 -19 -294 -72 -382 -69 l-53 2 50 3 c77 5 223 31 295 52 75 23 90 24
90 12z m-1653 -7 c-3 -3 -12 -4 -19 -1 -8 3 -5 6 6 6 11 1 17 -2 13 -5z m228
-14 c54 -6 56 -7 15 -7 -25 -1 -72 3 -105 7 -54 6 -56 7 -15 7 25 1 72 -3 105
-7z m1122 -6 c-3 -3 -12 -4 -19 -1 -8 3 -5 6 6 6 11 1 17 -2 13 -5z m-1188
-30 c9 -9 -9 -9 -114 -5 -80 4 -98 7 -65 10 45 6 171 2 179 -5z m117 -5 c29 0
56 -4 59 -9 8 -13 -123 -3 -144 11 -12 8 -11 9 8 3 13 -3 47 -6 77 -5z m-263
-16 c-7 -2 -19 -2 -25 0 -7 3 -2 5 12 5 14 0 19 -2 13 -5z m-861 -50 c23 -21
23 -34 -2 -56 -20 -17 -76 -25 -68 -9 2 4 12 24 21 45 20 42 23 44 49 20z
m1488 -78 c0 -5 -49 -32 -92 -52 -50 -22 -30 -4 30 26 64 34 62 33 62 26z
m585 -15 c3 -6 -1 -7 -9 -4 -18 7 -21 14 -7 14 6 0 13 -4 16 -10z m-2135 -60
c0 -15 -7 -33 -15 -40 -12 -10 -14 -7 -13 25 1 21 -4 40 -12 45 -7 4 -9 13 -5
20 11 18 45 -19 45 -50z m2283 -4 c53 -22 97 -43 97 -47 0 -8 -160 58 -195 80
-26 16 -17 13 98 -33z m-1096 8 c-3 -3 -12 -4 -19 -1 -8 3 -5 6 6 6 11 1 17
-2 13 -5z m821 -34 c17 -21 32 -43 32 -49 0 -5 6 -11 14 -13 25 -6 248 -277
242 -294 -3 -9 -11 -12 -18 -8 -9 6 -9 3 0 -9 8 -9 12 -21 10 -27 -2 -6 -26
21 -53 60 -28 39 -61 87 -75 105 -14 18 -47 65 -75 104 -27 39 -67 94 -88 121
-44 59 -36 67 11 10z m-873 20 c-27 -12 -43 -12 -25 0 8 5 22 9 30 9 10 0 8
-3 -5 -9z m-60 -20 c-11 -5 -27 -9 -35 -9 -9 0 -8 4 5 9 11 5 27 9 35 9 9 0 8
-4 -5 -9z m232 3 c-12 -11 -137 -61 -137 -54 0 3 30 18 68 33 74 30 78 31 69
21z m-1412 -81 c-3 -3 -5 2 -5 11 0 10 -7 17 -15 17 -18 0 -20 21 -3 38 10 10
14 6 21 -24 4 -20 5 -39 2 -42z m75 37 c0 -5 -7 -9 -15 -9 -15 0 -20 12 -9 23
8 8 24 -1 24 -14z m1703 -14 c-3 -9 -8 -14 -10 -11 -3 3 -2 9 2 15 9 16 15 13
8 -4z m-513 0 c0 -8 -102 -55 -119 -55 -25 0 0 16 59 38 65 25 60 23 60 17z
m871 -32 c13 -16 12 -17 -3 -4 -17 13 -22 21 -14 21 2 0 10 -8 17 -17z m-380
-16 c-10 -9 -11 -8 -5 6 3 10 9 15 12 12 3 -3 0 -11 -7 -18z m-1895 -28 c18
-7 17 -8 -3 -8 -22 -1 -48 31 -35 43 3 4 9 -1 12 -10 4 -10 15 -21 26 -25z
m1354 1 c-19 -11 -39 -19 -45 -19 -5 0 6 8 25 19 19 11 40 19 45 19 6 0 -6 -8
-25 -19z m971 -27 c18 -27 35 -50 38 -53 4 -3 37 -51 75 -108 38 -56 73 -105
78 -108 4 -3 8 -15 8 -26 0 -12 -46 48 -113 148 -132 198 -130 194 -123 194 3
0 20 -21 37 -47z m-1091 17 c-19 -13 -30 -13 -30 0 0 6 10 10 23 10 18 0 19
-2 7 -10z m955 -31 c4 -18 15 -50 25 -72 10 -23 16 -45 14 -49 -3 -4 0 -8 6
-8 8 0 10 -10 6 -27 -4 -18 -3 -23 2 -14 11 15 27 -2 17 -18 -5 -9 8 -52 35
-116 5 -11 28 -80 51 -153 31 -99 39 -138 32 -154 -7 -17 -13 -6 -36 68 -15
49 -29 98 -32 109 -4 22 -39 136 -78 255 -13 41 -32 100 -41 130 -10 30 -20
61 -23 68 -2 6 0 12 5 12 6 0 14 -14 17 -31z m-909 6 c-11 -8 -27 -15 -35 -15
-10 0 -7 6 9 14 33 19 50 19 26 1z m854 -130 c12 -66 23 -133 26 -150 2 -16 9
-57 14 -90 24 -146 70 -464 70 -485 0 -9 -6 -25 -14 -35 -15 -21 -18 -1 -51
280 -34 299 -56 474 -65 530 -10 59 -12 100 -5 80 2 -5 14 -64 25 -130z m-412
60 c-13 -19 -27 -35 -32 -35 -8 0 0 14 33 53 23 28 23 19 -1 -18z m104 -17
c-7 -7 -12 -8 -12 -2 0 6 3 14 7 17 3 4 9 5 12 2 2 -3 -1 -11 -7 -17z m518
-40 c0 -17 -10 -6 -25 25 l-16 32 20 -25 c11 -14 21 -28 21 -32z m-604 -142
c-42 -85 -76 -160 -76 -165 0 -5 -4 -13 -10 -16 -6 -4 -7 1 -3 11 4 12 3 15
-6 10 -7 -5 13 38 44 95 31 57 70 132 87 167 17 35 33 61 35 58 3 -3 -29 -75
-71 -160z m-66 134 c-6 -11 -15 -20 -20 -20 -6 0 -2 9 7 20 10 11 19 20 21 20
1 0 -2 -9 -8 -20z m700 -41 c6 -10 7 -19 2 -19 -5 0 -14 12 -20 26 -14 29 2
24 18 -7z m54 -35 c3 -8 2 -12 -4 -9 -6 3 -10 10 -10 16 0 14 7 11 14 -7z
m-814 -8 c0 -2 -8 -10 -17 -17 -16 -13 -17 -12 -4 4 13 16 21 21 21 13z m567
-28 c-3 -7 -5 -2 -5 12 0 14 2 19 5 13 2 -7 2 -19 0 -25z m223 12 c6 -11 8
-20 6 -20 -3 0 -10 9 -16 20 -6 11 -8 20 -6 20 3 0 10 -9 16 -20z m60 -30 c6
-11 8 -20 6 -20 -3 0 -10 9 -16 20 -6 11 -8 20 -6 20 3 0 10 -9 16 -20z m-273
-32 c-3 -7 -5 -2 -5 12 0 14 2 19 5 13 2 -7 2 -19 0 -25z m313 -33 c14 -19 14
-19 -2 -6 -10 7 -18 18 -18 24 0 6 1 8 3 6 1 -2 9 -13 17 -24z m-292 -45 c0
-9 -3 -7 -8 5 -5 11 -8 29 -8 40 0 16 2 15 8 -5 4 -14 8 -32 8 -40z m-3495
-95 c14 -4 17 -8 9 -12 -24 -9 -42 6 -41 34 1 22 3 23 6 7 2 -12 14 -25 26
-29z m50 13 c6 -23 37 -24 37 -1 0 13 3 14 11 6 6 -6 18 -9 25 -6 8 3 14 0 14
-5 0 -11 45 -10 57 1 3 4 13 1 22 -6 26 -22 51 -28 44 -11 -4 10 0 12 13 8 11
-4 24 -11 30 -16 6 -4 18 -6 27 -2 10 3 20 -2 26 -15 6 -11 17 -18 25 -15 7 3
20 -1 27 -9 8 -7 27 -17 42 -21 15 -3 27 -11 27 -17 0 -6 9 -8 20 -4 14 4 20
2 20 -8 0 -22 23 -27 37 -8 10 14 13 12 24 -12 13 -28 34 -36 42 -14 3 9 9 9
28 -2 16 -10 24 -10 27 -2 7 22 22 10 22 -19 0 -34 16 -39 36 -12 13 16 15 16
32 -7 16 -19 22 -22 39 -12 17 9 22 7 28 -7 6 -16 7 -16 21 2 11 16 14 17 14
4 0 -9 7 -18 15 -22 8 -3 15 -2 15 2 0 4 42 8 93 8 107 0 160 9 182 30 13 14
15 12 15 -21 0 -47 22 -42 27 6 5 43 12 64 20 56 3 -4 40 27 81 68 75 74 91
87 76 63 -9 -14 -9 -19 8 -193 6 -66 14 -158 17 -204 6 -83 22 -115 36 -71 10
32 30 18 29 -21 0 -19 4 -37 9 -40 6 -4 9 -59 8 -123 l-2 -116 51 0 c48 0 50
-1 50 -27 0 -15 -5 -53 -12 -85 -10 -46 -10 -63 0 -78 14 -23 16 -50 3 -50 -5
0 -18 -20 -30 -45 -22 -47 -29 -139 -11 -150 6 -3 10 -15 10 -26 0 -10 7 -19
15 -19 11 0 15 -11 14 -42 0 -31 -3 -37 -8 -24 -6 16 -9 17 -17 5 -4 -8 -9
-21 -9 -29 0 -9 -11 -16 -27 -18 -22 -3 -28 -9 -28 -28 0 -13 5 -24 10 -24 6
0 10 -7 10 -15 0 -22 -17 -18 -23 5 -3 13 -10 18 -21 14 -22 -9 -20 -35 4 -41
11 -3 20 -14 20 -24 0 -11 5 -19 10 -19 6 0 10 10 10 23 0 16 10 28 33 40 l32
16 -27 0 c-31 1 -36 14 -13 33 45 37 55 54 55 89 0 21 6 40 13 42 6 3 2 6 -10
6 -17 1 -23 7 -23 24 0 13 -5 28 -12 35 -21 21 18 14 54 -10 l34 -23 -1 -98
c-1 -54 1 -93 6 -86 9 16 14 12 24 -20 6 -20 4 -23 -9 -18 -11 5 -16 1 -16
-14 0 -13 4 -18 12 -13 8 5 9 2 5 -10 -4 -10 -7 -23 -7 -29 0 -7 -4 -6 -10 3
-6 9 -10 10 -10 3 0 -6 4 -14 9 -17 10 -7 2 -56 -10 -56 -5 0 -9 -9 -9 -20 0
-11 -4 -20 -10 -20 -5 0 -10 -9 -10 -19 0 -11 -4 -22 -9 -26 -6 -3 -20 -25
-31 -49 -22 -42 -90 -119 -146 -164 -51 -39 -197 -133 -214 -137 -15 -3 -87
-41 -98 -52 -18 -17 -50 -17 -44 0 1 4 -3 7 -8 7 -6 0 -10 -6 -9 -12 3 -25 -1
-41 -8 -34 -5 4 -8 13 -8 18 0 6 -6 13 -13 16 -9 3 -11 -3 -6 -24 6 -23 4 -26
-9 -21 -9 3 -19 1 -23 -4 -4 -7 -10 -7 -17 0 -18 18 -27 13 -27 -14 0 -45 -15
-26 -16 21 -1 29 2 41 7 33 8 -13 10 -10 8 7 0 4 5 10 11 14 9 5 9 9 1 14 -6
4 -11 3 -11 -2 0 -19 -33 -22 -45 -5 -8 10 -17 14 -22 10 -4 -5 0 -13 10 -18
9 -6 17 -17 17 -24 0 -8 5 -15 10 -15 6 0 10 -5 10 -11 0 -6 -7 -8 -17 -5 -9
4 -20 1 -24 -6 -4 -7 -11 -9 -15 -5 -4 3 -1 13 6 22 7 9 10 19 6 22 -14 14
-25 -22 -21 -67 l5 -45 -11 44 c-7 30 -13 40 -19 31 -6 -9 -11 -2 -15 24 -4
20 -9 35 -12 32 -10 -10 10 -76 23 -76 8 0 14 -4 14 -10 0 -5 -5 -10 -11 -10
-6 0 -8 -8 -4 -19 3 -11 2 -22 -3 -25 -6 -3 -12 3 -15 14 -3 11 -11 20 -17 20
-8 0 -10 -9 -6 -25 5 -20 3 -25 -14 -25 -11 0 -20 -4 -20 -10 0 -5 -5 -10 -11
-10 -6 0 -9 7 -5 15 3 9 -4 25 -17 38 l-22 22 -3 -24 c-2 -13 2 -27 8 -31 9
-5 6 -10 -9 -15 -11 -3 -21 -14 -21 -23 0 -25 -19 -1 -22 28 -2 14 2 25 10 25
6 0 12 3 12 8 0 4 0 21 0 37 0 23 -5 30 -19 30 -14 0 -17 -6 -13 -25 2 -14 0
-25 -6 -25 -5 0 -13 17 -17 37 -6 31 -9 34 -15 18 -4 -11 -2 -29 3 -40 21 -41
23 -51 16 -85 -5 -29 -7 -31 -9 -10 -1 14 -2 28 -1 33 0 4 -3 7 -9 7 -5 0 -7
7 -4 15 7 17 -11 21 -21 5 -9 -15 -25 -12 -25 5 0 8 -4 15 -10 15 -5 0 -10 7
-10 15 0 20 10 19 26 -2 13 -19 31 -12 19 7 -4 7 -9 29 -10 49 -1 20 -5 43 -9
51 -4 9 1 24 12 36 16 16 18 31 14 72 -2 29 -9 52 -15 52 -6 0 -8 -20 -5 -50
6 -61 -7 -66 -22 -7 -6 23 -12 46 -13 50 -2 5 -3 -32 -3 -83 0 -50 3 -85 7
-78 11 17 16 10 24 -34 5 -26 4 -38 -4 -38 -6 0 -11 6 -11 13 0 8 -4 7 -10 -3
-8 -12 -10 -12 -10 5 0 14 -3 16 -8 7 -5 -7 -9 23 -9 65 0 52 2 70 7 53 7 -21
8 -21 9 -5 0 11 -4 27 -9 35 -9 13 -10 13 -11 0 -1 -8 -5 3 -9 25 -5 27 -6 14
-4 -40 2 -55 0 -71 -5 -50 l-9 30 -1 -36 c0 -20 -3 -52 -6 -70 -4 -24 -3 -28
3 -15 8 19 9 19 15 -3 8 -34 -3 -91 -19 -91 -8 0 -14 -2 -14 -4 0 -2 -3 -13
-6 -23 -5 -16 -4 -16 10 1 13 16 19 17 28 8 20 -20 28 -14 28 24 0 21 4 33 10
29 6 -3 10 -15 10 -26 0 -16 5 -19 20 -14 15 5 22 0 30 -20 12 -33 12 -35 0
-35 -5 0 -10 6 -10 14 0 8 -7 17 -16 20 -13 5 -15 1 -10 -19 4 -14 2 -25 -3
-25 -5 0 -12 8 -14 18 -4 14 -6 14 -12 -6 -8 -25 -23 -29 -31 -7 -4 8 -10 12
-16 9 -5 -3 -7 -13 -4 -21 4 -9 1 -13 -6 -11 -7 3 -17 23 -22 46 -6 23 -13 42
-17 42 -4 0 -5 9 -2 20 3 11 0 27 -7 35 -7 9 -10 19 -6 23 8 7 26 -18 38 -53
5 -13 6 -6 5 19 -1 27 -11 48 -33 72 -37 41 -44 42 -44 7 0 -48 -13 -15 -15
39 -2 29 -1 41 2 26 2 -16 9 -28 15 -28 7 0 8 14 4 39 -5 30 -2 42 14 56 28
26 42 9 57 -68 l12 -62 -4 70 c-3 39 -5 100 -5 138 0 41 -4 67 -11 67 -6 0 -9
-18 -8 -45 3 -50 -13 -77 -33 -57 -16 16 -38 89 -37 122 l1 25 8 -25 7 -25 8
28 c4 15 13 27 21 27 7 0 18 8 23 18 9 14 11 12 12 -13 l1 -30 7 30 c11 45 27
69 55 85 14 7 26 20 26 28 0 7 13 19 29 25 29 11 41 37 41 94 0 20 4 23 21 18
15 -5 22 -2 26 14 3 12 9 21 14 21 5 0 9 15 10 33 0 26 2 28 8 12 7 -17 9 -16
15 13 4 18 16 41 26 50 20 19 39 80 41 132 l1 35 7 -30 7 -30 7 36 c4 20 5 45
1 55 -5 16 -4 16 5 4 9 -12 11 -9 12 15 l1 30 8 -30 c7 -28 8 -27 10 15 1 37
3 41 11 25 8 -17 8 -16 3 5 -3 14 -11 57 -17 95 -6 39 -12 72 -13 74 -2 2 -11
-2 -21 -10 -15 -12 -16 -12 -10 4 4 11 3 16 -3 12 -6 -3 -10 1 -10 9 0 9 -4
16 -10 16 -5 0 -10 -7 -10 -15 0 -8 4 -15 9 -15 5 0 11 -12 14 -26 3 -20 0
-28 -14 -31 -14 -4 -18 -11 -13 -25 8 -27 -5 -76 -16 -58 -6 9 -11 -2 -15 -34
-4 -26 -14 -53 -21 -61 -8 -7 -14 -19 -14 -25 0 -7 -7 -10 -15 -6 -11 4 -15
-2 -15 -20 0 -14 -7 -33 -16 -42 -15 -15 -16 -14 -9 8 4 14 4 22 0 18 -4 -4
-10 -22 -14 -40 -5 -23 -12 -32 -24 -30 -12 2 -17 -4 -17 -20 0 -13 -5 -30
-10 -38 -7 -11 -10 -1 -11 35 l-2 50 -10 -52 c-5 -29 -14 -53 -18 -53 -5 0 -9
5 -9 10 0 6 -4 10 -10 10 -5 0 -10 -11 -10 -25 0 -26 -15 -34 -23 -12 -3 7 -6
6 -6 -5 -1 -9 -10 -20 -21 -23 -11 -3 -20 -10 -20 -15 0 -11 -49 -19 -56 -8
-9 14 38 50 58 45 12 -4 18 0 18 11 0 10 16 34 35 55 38 41 39 45 25 67 -6 9
-5 17 3 22 9 6 9 12 0 28 -7 11 -13 28 -13 37 0 28 -61 -75 -67 -113 -8 -46
-35 -69 -63 -54 -32 17 -48 7 -42 -29 3 -20 0 -31 -8 -31 -6 0 -10 -6 -7 -12
8 -22 -26 -68 -50 -68 -29 0 -67 -17 -122 -53 -42 -29 -45 -29 -105 -19 -33 5
-74 15 -89 21 -27 10 -28 14 -23 54 l5 42 -10 -36 c-8 -29 -14 -36 -30 -32
-15 4 -18 11 -13 27 13 40 24 91 23 111 -1 21 -9 -2 -29 -87 -7 -27 -16 -48
-21 -48 -6 0 -8 8 -5 18 2 9 14 60 26 112 12 52 30 124 40 160 11 36 35 132
54 214 19 81 38 151 42 155 3 3 3 -9 -1 -28 -4 -18 -8 -39 -9 -45 -10 -52 -43
-191 -68 -284 -16 -62 -28 -120 -26 -129 4 -20 35 93 85 311 24 107 33 163 27
173 -6 10 1 57 22 142 42 165 53 193 76 185 30 -9 21 20 -12 40 -17 9 -28 21
-25 26 3 4 -4 6 -15 3 -10 -3 -22 -14 -26 -25 -3 -11 -8 -17 -11 -15 -2 3 0
15 6 26 10 18 7 23 -29 41 -22 11 -40 18 -40 14 0 -4 -6 -1 -14 6 -8 6 -12 18
-9 26 6 16 34 19 48 5 6 -5 21 -12 35 -15 24 -7 24 -6 6 8 -19 16 -19 16 1 16
12 0 25 -6 29 -12 6 -9 10 -5 15 12 7 24 7 24 8 3 1 -25 37 -67 46 -54 3 5 2
17 -2 27 -4 12 -3 15 5 10 7 -4 12 -18 12 -32 0 -14 6 -32 14 -40 23 -23 31
-16 10 8 l-19 22 27 -17 c15 -9 34 -14 42 -11 9 3 16 1 16 -5 0 -6 11 -11 24
-11 14 0 28 -4 31 -10 10 -17 38 -12 31 6 -3 8 -1 20 4 27 42 50 50 63 50 85
0 14 -8 31 -17 38 -16 12 -15 13 13 14 16 0 35 5 42 12 19 19 14 56 -10 69
-19 10 -25 8 -45 -15 -23 -27 -24 -27 -27 17 -1 6 6 11 14 9 12 -3 13 -1 3 9
-20 20 -15 31 6 19 11 -5 26 -10 33 -9 8 0 9 2 2 5 -7 3 -9 14 -6 26 3 12 -1
26 -10 32 -8 6 -17 19 -21 29 -8 22 -67 24 -67 2 0 -8 -9 -15 -19 -15 -12 0
-26 -13 -35 -32 -20 -39 -20 -47 0 -86 15 -31 11 -58 -7 -46 -5 3 -8 0 -7 -7
3 -15 -65 -52 -70 -38 -2 5 -19 16 -38 25 l-34 16 22 20 c22 20 22 20 2 14
-19 -6 -21 -3 -18 21 4 24 3 25 -5 8 -9 -19 -10 -18 -10 4 -1 24 -1 24 -17 5
-15 -18 -15 -18 -9 9 4 20 2 27 -10 27 -8 0 -15 5 -15 10 0 6 4 10 9 10 6 0
13 -4 16 -10 7 -12 35 -13 35 -2 0 5 -18 19 -40 31 -31 17 -39 27 -35 41 4 12
-1 22 -12 29 -10 6 -13 11 -6 11 6 0 15 -4 18 -10 10 -16 38 -12 31 5 -4 12 0
14 19 9 22 -5 25 -3 25 20 0 16 -6 26 -15 26 -8 0 -15 7 -15 15 0 8 -6 15 -14
15 -8 0 -17 4 -20 8 -3 5 8 9 24 9 19 0 30 -6 33 -19z m27 12 c0 -5 -4 -10
-10 -10 -5 0 -10 5 -10 10 0 6 5 10 10 10 6 0 10 -4 10 -10z m2840 -26 c0 -16
-4 -23 -11 -18 -7 4 -9 0 -5 -14 4 -11 2 -23 -3 -27 -7 -4 -8 1 -5 12 4 14 4
15 -4 4 -5 -7 -8 -21 -5 -30 4 -17 -43 -78 -53 -68 -5 5 75 167 83 167 2 0 3
-12 3 -26z m747 -36 c-3 -8 -6 -5 -6 6 -1 11 2 17 5 13 3 -3 4 -12 1 -19z
m-3617 2 c0 -5 -7 -10 -15 -10 -8 0 -15 5 -15 10 0 6 7 10 15 10 8 0 15 -4 15
-10z m2764 -151 c-15 -30 -15 -31 1 -26 10 4 14 3 10 -4 -4 -6 -13 -8 -20 -5
-13 5 -25 -14 -25 -37 0 -7 4 -6 10 3 12 18 12 2 0 -25 -5 -11 -9 -14 -9 -7
-1 7 -6 10 -12 6 -6 -3 -9 -14 -6 -24 3 -13 0 -17 -9 -13 -8 3 -14 -1 -14 -9
0 -8 -7 -23 -15 -34 -14 -18 -15 -18 -6 6 9 25 79 163 94 188 16 25 17 11 1
-19z m743 -1 c-3 -8 -6 -5 -6 6 -1 11 2 17 5 13 3 -3 4 -12 1 -19z m-3562 -27
c-6 -5 -25 10 -25 20 0 5 6 4 14 -3 8 -7 12 -15 11 -17z m2906 -88 c-12 -20
-14 -14 -5 12 4 9 9 14 11 11 3 -2 0 -13 -6 -23z m226 -15 c-3 -8 -6 -5 -6 6
-1 11 2 17 5 13 3 -3 4 -12 1 -19z m-3290 -50 c-3 -8 -6 -5 -6 6 -1 11 2 17 5
13 3 -3 4 -12 1 -19z m263 1 c0 -6 -4 -7 -10 -4 -5 3 -10 11 -10 16 0 6 5 7
10 4 6 -3 10 -11 10 -16z m-115 1 c3 -6 -1 -7 -9 -4 -18 7 -21 14 -7 14 6 0
13 -4 16 -10z m-77 -20 c-7 -11 -16 -20 -20 -20 -11 0 -10 9 5 25 18 21 29 18
15 -5z m-38 6 c0 -3 -4 -8 -10 -11 -5 -3 -10 -1 -10 4 0 6 5 11 10 11 6 0 10
-2 10 -4z m-63 -48 c-3 -7 -5 -2 -5 12 0 14 2 19 5 13 2 -7 2 -19 0 -25z
m2874 -15 c-11 -21 -20 -35 -21 -31 0 12 33 78 38 74 2 -2 -6 -21 -17 -43z
m426 15 c-3 -8 -6 -5 -6 6 -1 11 2 17 5 13 3 -3 4 -12 1 -19z m-2832 -8 c3 -5
1 -10 -4 -10 -6 0 -11 5 -11 10 0 6 2 10 4 10 3 0 8 -4 11 -10z m-330 -9 c3
-5 1 -12 -5 -16 -5 -3 -10 1 -10 9 0 18 6 21 15 7z m28 -21 c-3 -11 -9 -20
-15 -20 -5 0 -4 9 2 20 6 11 12 20 14 20 2 0 2 -9 -1 -20z m12 -43 c-22 -53
-27 -46 -7 8 9 26 18 42 20 37 1 -5 -4 -25 -13 -45z m51 -28 c-9 -19 -15 -26
-16 -17 0 23 22 75 26 62 3 -6 -2 -26 -10 -45z m2615 18 c-8 -8 -11 -7 -11 4
0 20 13 34 18 19 3 -7 -1 -17 -7 -23z m-2586 -9 c-8 -37 -25 -61 -25 -35 0 17
20 67 27 67 3 0 2 -15 -2 -32z m-64 -15 c-8 -15 -10 -15 -11 -2 0 17 10 32 18
25 2 -3 -1 -13 -7 -23z m3086 5 c-3 -8 -6 -5 -6 6 -1 11 2 17 5 13 3 -3 4 -12
1 -19z m-3153 -32 c-3 -15 -8 -25 -11 -23 -2 3 -1 17 3 31 3 15 8 25 11 23 2
-3 1 -17 -3 -31z m-83 -3 c-12 -20 -14 -14 -5 12 4 9 9 14 11 11 3 -2 0 -13
-6 -23z m114 -20 l-6 -28 16 30 c14 27 15 27 10 5 -2 -14 -5 -29 -5 -34 0 -4
-6 -6 -14 -3 -8 3 -17 1 -19 -6 -2 -7 -2 2 1 18 5 31 10 45 18 45 2 0 2 -12
-1 -27z m25 -98 c-12 -42 -20 -79 -17 -81 5 -5 25 54 47 139 7 26 15 46 17 44
4 -4 -33 -165 -44 -197 -7 -19 -10 -28 -16 -65 -2 -16 -17 -82 -32 -145 -16
-63 -32 -132 -37 -152 -10 -44 -27 -52 -21 -10 2 15 -7 -4 -21 -43 -13 -38
-27 -92 -30 -120 -5 -45 -3 -43 13 21 20 77 47 136 37 79 -18 -93 -63 -275
-70 -282 -5 -4 -6 3 -3 17 3 14 8 45 11 70 l6 45 -10 -40 c-6 -22 -12 -50 -15
-61 -6 -25 -45 -40 -45 -17 0 8 9 49 19 91 11 43 22 97 26 122 15 94 77 330
82 313 2 -6 -10 -67 -28 -134 -34 -136 -79 -345 -78 -369 1 -31 21 38 39 130
10 52 29 140 44 195 14 55 27 109 28 120 2 11 6 25 9 30 4 6 9 28 13 50 11 68
91 356 94 340 2 -8 -6 -48 -18 -90z m3077 53 c-3 -8 -6 -5 -6 6 -1 11 2 17 5
13 3 -3 4 -12 1 -19z m-3132 -38 c-4 -11 -2 -20 4 -20 6 0 11 8 12 18 0 9 3
12 5 5 3 -6 -3 -40 -14 -75 -11 -35 -25 -93 -32 -130 -8 -38 -17 -68 -21 -68
-7 0 4 70 17 105 5 15 4 17 -5 9 -6 -6 -13 -19 -16 -30 -24 -116 -34 -156 -39
-161 -11 -11 -6 35 9 94 25 96 36 124 47 117 6 -4 5 2 -1 15 -10 17 -9 22 4
28 22 8 40 54 24 63 -10 7 -4 50 7 50 3 0 2 -9 -1 -20z m-86 1 c0 -3 -6 -22
-14 -41 l-13 -35 2 41 c1 25 6 41 14 41 6 0 12 -3 11 -6z m22 -28 c-12 -20
-14 -14 -5 12 4 9 9 14 11 11 3 -2 0 -13 -6 -23z m26 -5 c-3 -8 -6 -5 -6 6 -1
11 2 17 5 13 3 -3 4 -12 1 -19z m14 -35 c-12 -20 -14 -14 -5 12 4 9 9 14 11
11 3 -2 0 -13 -6 -23z m-65 -49 c-4 -14 -9 -24 -12 -21 -3 2 -2 17 2 31 3 15
9 25 11 22 3 -3 2 -17 -1 -32z m19 -37 c-8 -20 -17 -37 -20 -37 -7 0 3 37 16
62 7 13 12 24 11 26 -1 1 -1 8 -1 15 1 6 4 3 6 -8 2 -11 -3 -37 -12 -58z m-54
22 c-5 -13 -10 -19 -10 -12 -1 15 10 45 15 40 3 -2 0 -15 -5 -28z m13 -63 c-3
-21 -8 -35 -11 -32 -2 2 -1 20 3 40 3 21 8 35 11 32 2 -2 1 -20 -3 -40z m-87
-8 c-3 -8 -6 -5 -6 6 -1 11 2 17 5 13 3 -3 4 -12 1 -19z m110 -20 c-3 -8 -6
-5 -6 6 -1 11 2 17 5 13 3 -3 4 -12 1 -19z m-43 -62 c-3 -21 -8 -35 -11 -32
-2 2 -1 20 3 40 3 21 8 35 11 32 2 -2 1 -20 -3 -40z m20 -43 c-11 -47 -20 -69
-22 -55 -2 13 0 31 4 40 4 9 8 22 8 27 4 31 19 76 23 71 3 -3 -3 -40 -13 -83z
m1801 77 c3 -5 1 -10 -4 -10 -6 0 -11 5 -11 10 0 6 2 10 4 10 3 0 8 -4 11 -10z
m-1851 -34 c-3 -15 -8 -25 -11 -23 -2 3 -1 17 3 31 3 15 8 25 11 23 2 -3 1
-17 -3 -31z m-31 -21 c-3 -9 -8 -14 -10 -11 -3 3 -2 9 2 15 9 16 15 13 8 -4z
m1067 -21 c0 -8 -4 -14 -10 -14 -5 0 -10 9 -10 21 0 11 5 17 10 14 6 -3 10
-13 10 -21z m-1053 -26 c-3 -7 -5 -2 -5 12 0 14 2 19 5 13 2 -7 2 -19 0 -25z
m23 -15 c-11 -17 -11 -17 -6 0 3 10 6 24 7 30 0 9 2 9 5 0 3 -7 0 -20 -6 -30z
m-53 5 c-3 -8 -6 -5 -6 6 -1 11 2 17 5 13 3 -3 4 -12 1 -19z m98 -78 c-10 -39
-19 -69 -22 -67 -2 3 4 37 13 76 9 40 18 70 21 67 3 -3 -2 -37 -12 -76z m-78
38 c-3 -7 -5 -2 -5 12 0 14 2 19 5 13 2 -7 2 -19 0 -25z m-36 -21 c-10 -9 -11
-8 -5 6 3 10 9 15 12 12 3 -3 0 -11 -7 -18z m54 -29 c-4 -29 -12 -60 -17 -68
-6 -10 -7 -4 -3 20 3 19 9 50 12 68 9 52 15 36 8 -20z m32 10 c-3 -7 -5 -2 -5
12 0 14 2 19 5 13 2 -7 2 -19 0 -25z m-63 -12 c-3 -15 -8 -25 -11 -23 -2 3 -1
17 3 31 3 15 8 25 11 23 2 -3 1 -17 -3 -31z m1866 -6 c0 -5 -4 -10 -10 -10 -5
0 -10 5 -10 10 0 6 5 10 10 10 6 0 10 -4 10 -10z m-1813 -22 c-3 -8 -6 -5 -6
6 -1 11 2 17 5 13 3 -3 4 -12 1 -19z m1857 -3 c-4 -8 -10 -15 -15 -15 -5 0 -9
7 -9 15 0 8 7 15 15 15 9 0 12 -6 9 -15z m-1953 -26 c-5 -13 -10 -19 -10 -12
-1 15 10 45 15 40 3 -2 0 -15 -5 -28z m76 -56 c-8 -32 -18 -80 -22 -108 -4
-27 -10 -59 -12 -70 -11 -46 -15 -80 -9 -74 8 7 33 119 46 201 4 31 13 65 19
75 13 20 14 29 -13 -112 -9 -44 -19 -100 -24 -125 -5 -30 -13 -46 -25 -48 -20
-4 -22 25 -8 91 6 23 20 86 32 140 12 54 24 96 26 93 3 -2 -2 -31 -10 -63z
m-90 5 c-3 -8 -6 -5 -6 6 -1 11 2 17 5 13 3 -3 4 -12 1 -19z m57 -22 c-3 -21
-8 -35 -11 -32 -2 2 -1 20 3 40 3 21 8 35 11 32 2 -2 1 -20 -3 -40z m-24 -6
c0 -5 -4 -10 -10 -10 -5 0 -10 5 -10 10 0 6 5 10 10 10 6 0 10 -4 10 -10z
m-63 -32 c-3 -8 -6 -5 -6 6 -1 11 2 17 5 13 3 -3 4 -12 1 -19z m68 -63 c-3
-26 -9 -44 -12 -41 -3 3 -2 26 2 51 3 26 9 44 12 41 3 -3 2 -26 -2 -51z m-45
36 c0 -6 -4 -13 -10 -16 -5 -3 -10 1 -10 9 0 9 5 16 10 16 6 0 10 -4 10 -9z
m17 -33 c-3 -7 -5 -2 -5 12 0 14 2 19 5 13 2 -7 2 -19 0 -25z m-80 -10 c-3 -8
-6 -5 -6 6 -1 11 2 17 5 13 3 -3 4 -12 1 -19z m70 -30 c-3 -8 -6 -5 -6 6 -1
11 2 17 5 13 3 -3 4 -12 1 -19z m-56 -29 c-5 -13 -10 -19 -10 -12 -1 15 10 45
15 40 3 -2 0 -15 -5 -28z m26 -1 c-3 -7 -5 -2 -5 12 0 14 2 19 5 13 2 -7 2
-19 0 -25z m25 -28 c-2 -22 -7 -40 -11 -40 -4 0 -5 18 -3 40 2 22 7 40 11 40
4 0 5 -18 3 -40z m18 -17 c-11 -17 -11 -17 -6 0 3 10 7 28 7 40 2 22 2 22 6 0
2 -12 -1 -30 -7 -40z m-53 -15 c-3 -7 -5 -2 -5 12 0 14 2 19 5 13 2 -7 2 -19
0 -25z m1000 0 c-3 -7 -5 -2 -5 12 0 14 2 19 5 13 2 -7 2 -19 0 -25z m-104
-146 c-3 -12 -9 -22 -14 -22 -12 0 -11 7 3 30 15 24 19 21 11 -8z m-53 -26 c0
-3 -4 -8 -10 -11 -5 -3 -10 -1 -10 4 0 6 5 11 10 11 6 0 10 -2 10 -4z m-290
-86 c0 -5 -4 -10 -10 -10 -5 0 -10 5 -10 10 0 6 5 10 10 10 6 0 10 -4 10 -10z
m-266 -16 c3 -9 6 -17 6 -18 0 -1 -37 -3 -82 -3 l-83 -1 64 14 c36 8 67 16 69
19 10 9 20 5 26 -11z m71 -4 c3 -5 -3 -10 -15 -10 -12 0 -18 5 -15 10 3 6 10
10 15 10 5 0 12 -4 15 -10z m92 -4 c18 5 24 3 19 -4 -7 -12 -86 -14 -86 -2 0
11 34 18 38 8 2 -4 15 -5 29 -2z m63 10 c0 -3 -4 -8 -10 -11 -5 -3 -10 -1 -10
4 0 6 5 11 10 11 6 0 10 -2 10 -4z m1697 -203 c1 -10 4 -35 8 -55 5 -27 4 -38
-4 -38 -9 0 -9 -5 -1 -20 8 -14 8 -26 0 -40 -9 -16 -8 -20 6 -20 16 0 16 -2
-3 -62 -3 -10 2 -18 14 -21 13 -3 9 -6 -14 -12 -18 -4 -33 -11 -33 -16 0 -5
-14 -9 -31 -9 -26 0 -31 -3 -26 -20 3 -13 0 -20 -9 -20 -8 0 -14 9 -14 20 0
11 -6 20 -14 20 -8 0 -17 6 -19 13 -4 9 -7 9 -14 -1 -6 -8 -26 -11 -57 -9 -52
5 -67 14 -46 27 22 14 -5 13 -33 -2 -48 -24 -55 -27 -76 -21 -11 3 -21 10 -21
15 0 6 -6 5 -14 -1 -10 -8 -21 -9 -33 -3 -10 5 -29 9 -43 7 -30 -2 -59 30 -41
48 19 19 12 27 -14 15 -14 -6 -25 -17 -25 -25 0 -18 -26 -17 -34 2 -3 9 0 15
9 15 8 0 15 4 15 10 0 5 18 15 40 21 22 7 40 17 40 23 0 11 63 66 76 66 3 0
22 14 41 31 36 31 43 32 106 13 9 -3 17 -1 17 5 0 6 9 11 20 11 11 0 20 5 20
10 0 6 19 10 43 10 33 0 39 3 27 11 -12 9 -12 10 3 5 10 -3 36 -6 58 -6 32 0
42 -5 49 -22 8 -19 9 -18 4 10 -4 23 -2 32 8 32 8 0 14 -8 15 -17z m-1500 -75
c-2 -13 -4 -3 -4 22 0 25 2 35 4 23 2 -13 2 -33 0 -45z m-110 -10 c-3 -7 -5
-2 -5 12 0 14 2 19 5 13 2 -7 2 -19 0 -25z m70 0 c-3 -8 -6 -5 -6 6 -1 11 2
17 5 13 3 -3 4 -12 1 -19z m12 -32 c-9 -8 -10 -7 -5 7 3 10 7 24 7 30 1 7 3 4
6 -7 3 -10 -1 -23 -8 -30z m-52 2 c-3 -8 -6 -5 -6 6 -1 11 2 17 5 13 3 -3 4
-12 1 -19z m143 -106 c0 -5 -7 -15 -15 -22 -12 -10 -15 -9 -15 6 0 11 -3 30
-7 44 l-6 25 22 -22 c11 -12 21 -26 21 -31z m500 28 c0 -11 -4 -20 -9 -20 -6
0 -9 9 -8 20 1 11 5 20 9 20 4 0 8 -9 8 -20z m-560 -29 c0 -17 5 -33 10 -36 6
-3 10 -16 9 -28 -1 -19 -2 -18 -13 8 -21 47 -28 85 -16 85 5 0 10 -13 10 -29z
m-40 -16 c0 -8 -4 -15 -10 -15 -5 0 -7 7 -4 15 4 8 8 15 10 15 2 0 4 -7 4 -15z
m950 -16 c0 -5 -19 -8 -42 -8 -24 1 -34 4 -23 6 11 3 24 12 28 20 7 11 12 12
23 2 8 -6 14 -15 14 -20z m-90 -9 c0 -5 -4 -10 -10 -10 -5 0 -10 5 -10 10 0 6
5 10 10 10 6 0 10 -4 10 -10z m-736 -67 c5 -15 3 -23 -4 -23 -6 0 -9 4 -6 9 4
5 2 11 -3 13 -5 1 -13 17 -16 33 -7 28 -6 29 8 10 8 -11 17 -30 21 -42z m981
37 c3 -5 1 -10 -4 -10 -6 0 -11 5 -11 10 0 6 2 10 4 10 3 0 8 -4 11 -10z
m-1117 -47 c6 -18 9 -33 7 -33 -5 0 -35 68 -35 78 0 14 18 -16 28 -45z m806
29 c3 -5 1 -22 -4 -38 l-10 -29 5 32 c2 19 0 34 -8 37 -9 3 -9 5 0 5 6 1 14
-3 17 -7z m-900 -18 c3 -8 2 -12 -4 -9 -6 3 -10 10 -10 16 0 14 7 11 14 -7z
m43 -6 c-3 -8 -6 -5 -6 6 -1 11 2 17 5 13 3 -3 4 -12 1 -19z m103 -27 c0 -21
-16 -2 -24 29 -7 24 -6 24 8 6 9 -11 16 -27 16 -35z m40 22 c0 -19 -3 -24 -10
-17 -6 6 -8 18 -4 27 9 24 14 21 14 -10z m675 -1 c-3 -3 -11 0 -18 7 -9 10 -8
11 6 5 10 -3 15 -9 12 -12z m168 11 c-7 -2 -19 -2 -25 0 -7 3 -2 5 12 5 14 0
19 -2 13 -5z m-212 -46 c-13 -13 -15 1 -4 30 7 17 8 17 11 -1 2 -10 -1 -23 -7
-29z m580 16 c-8 -15 -10 -15 -11 -2 0 17 10 32 18 25 2 -3 -1 -13 -7 -23z
m59 -4 c0 -18 -18 -9 -23 12 -4 16 -3 18 9 8 8 -6 14 -15 14 -20z m30 21 c0
-5 -4 -10 -10 -10 -5 0 -10 5 -10 10 0 6 5 10 10 10 6 0 10 -4 10 -10z m-1465
-20 c3 -6 -1 -7 -9 -4 -18 7 -21 14 -7 14 6 0 13 -4 16 -10z m765 -9 c0 -6 -4
-13 -10 -16 -5 -3 -10 1 -10 9 0 9 5 16 10 16 6 0 10 -4 10 -9z m-66 -16 c-4
-8 -8 -15 -10 -15 -2 0 -4 7 -4 15 0 8 4 15 10 15 5 0 7 -7 4 -15z m893 -17
c-3 -7 -5 -2 -5 12 0 14 2 19 5 13 2 -7 2 -19 0 -25z m-481 -5 c-10 -10 -19 5
-10 18 6 11 8 11 12 0 2 -7 1 -15 -2 -18z m88 12 c-4 -8 -1 -15 6 -15 6 0 8
-5 4 -11 -5 -8 -10 -6 -16 5 -5 9 -6 21 -3 26 9 15 15 12 9 -5z m243 2 c-3 -8
-1 -20 3 -27 5 -8 6 -19 2 -24 -3 -6 -9 0 -12 14 -7 25 -3 50 7 50 3 0 3 -6 0
-13z m-787 -30 c0 -5 -4 -5 -10 -2 -5 3 -10 -1 -10 -9 0 -9 6 -15 12 -13 7 1
14 -9 15 -23 2 -22 2 -23 -6 -5 l-10 20 0 -20 c-1 -11 -5 -26 -9 -33 -7 -10
-9 75 -3 113 1 11 21 -15 21 -28z m151 6 c-12 -20 -14 -14 -5 12 4 9 9 14 11
11 3 -2 0 -13 -6 -23z m71 18 c8 12 9 12 6 0 -2 -8 -11 -15 -20 -17 -12 -1
-15 3 -10 14 4 12 7 13 10 3 4 -11 6 -11 14 0z m272 -9 c-6 -4 -18 -18 -27
-32 -16 -23 -17 -23 -17 -3 0 19 39 56 50 46 2 -2 0 -7 -6 -11z m-62 -47 c3
-16 3 -24 1 -17 -3 6 -9 12 -14 12 -5 0 -9 12 -9 27 0 35 16 19 22 -22z m408
25 c0 -5 -5 -10 -11 -10 -5 0 -7 5 -4 10 3 6 8 10 11 10 2 0 4 -4 4 -10z
m-961 -42 c1 -5 -3 -8 -8 -8 -11 0 -21 37 -13 45 6 5 20 -19 21 -37z m25 10
c-4 -23 -3 -29 4 -19 7 9 12 10 16 2 6 -10 0 -13 -20 -10 -4 0 -11 -5 -16 -13
-7 -9 -8 -8 -4 5 3 10 6 30 6 43 0 13 4 24 10 24 5 0 7 -14 4 -32z m303 10
c-3 -8 -6 -5 -6 6 -1 11 2 17 5 13 3 -3 4 -12 1 -19z m160 0 c-3 -8 -6 -5 -6
6 -1 11 2 17 5 13 3 -3 4 -12 1 -19z m-230 -10 c-3 -8 -6 -5 -6 6 -1 11 2 17
5 13 3 -3 4 -12 1 -19z m-311 -22 c0 -19 -4 -32 -8 -30 -4 3 -8 18 -8 35 0 16
4 29 8 29 4 0 8 -15 8 -34z m529 -15 c-10 -32 -22 -25 -17 10 3 20 8 27 14 21
6 -6 7 -19 3 -31z m-135 14 c0 -8 -4 -15 -10 -15 -5 0 -7 7 -4 15 4 8 8 15 10
15 2 0 4 -7 4 -15z m170 -20 c0 -5 -5 -3 -10 5 -5 8 -10 20 -10 25 0 6 5 3 10
-5 5 -8 10 -19 10 -25z m425 25 c3 -5 -1 -10 -10 -10 -9 0 -13 5 -10 10 3 6 8
10 10 10 2 0 7 -4 10 -10z m-968 -22 c-3 -8 -6 -5 -6 6 -1 11 2 17 5 13 3 -3
4 -12 1 -19z m213 12 c0 -5 -5 -10 -11 -10 -5 0 -7 5 -4 10 3 6 8 10 11 10 2
0 4 -4 4 -10z m-460 -25 c-7 -9 -15 -13 -19 -10 -3 3 1 10 9 15 21 14 24 12
10 -5z m481 -8 c-13 -13 -26 -3 -16 12 3 6 11 8 17 5 6 -4 6 -10 -1 -17z m216
1 c-3 -8 -6 -5 -6 6 -1 11 2 17 5 13 3 -3 4 -12 1 -19z m-540 -10 c-3 -8 -6
-5 -6 6 -1 11 2 17 5 13 3 -3 4 -12 1 -19z m278 -7 c-9 -16 -25 -3 -18 15 4
10 9 12 15 6 6 -6 7 -15 3 -21z m-125 10 c0 -17 -18 -21 -24 -6 -3 9 0 15 9
15 8 0 15 -4 15 -9z m-111 -56 c0 -5 -4 -3 -9 5 -8 12 -10 10 -10 -9 0 -30 -5
-25 -14 14 -5 22 -4 26 4 15 8 -13 10 -12 11 5 l0 20 9 -20 c5 -11 9 -24 9
-30z m72 31 c15 9 10 -6 -6 -23 -20 -20 -26 -14 -18 17 4 14 8 19 11 12 2 -7
8 -10 13 -6z m-208 -11 c4 -8 2 -17 -3 -20 -6 -4 -10 3 -10 14 0 25 6 27 13 6z
m248 -12 c-8 -15 -10 -15 -11 -2 0 17 10 32 18 25 2 -3 -1 -13 -7 -23z m-94
-5 c-3 -8 -6 -5 -6 6 -1 11 2 17 5 13 3 -3 4 -12 1 -19z m180 -10 c-3 -8 -6
-5 -6 6 -1 11 2 17 5 13 3 -3 4 -12 1 -19z m-240 -20 c-3 -8 -6 -5 -6 6 -1 11
2 17 5 13 3 -3 4 -12 1 -19z m230 -30 c-3 -8 -6 -5 -6 6 -1 11 2 17 5 13 3 -3
4 -12 1 -19z m619 -128 c6 0 19 -7 30 -16 18 -14 18 -15 -4 -4 -18 9 -23 8
-29 -6 -5 -15 -8 -14 -15 6 -7 18 -11 20 -23 10 -12 -10 -15 -9 -15 7 0 29 11
35 30 18 9 -8 21 -15 26 -15z m194 -30 c0 -5 -4 -10 -10 -10 -5 0 -10 5 -10
10 0 6 5 10 10 10 6 0 10 -4 10 -10z m-120 -62 c0 -6 -9 -2 -20 10 -11 12 -20
26 -20 32 0 5 9 1 20 -10 11 -11 20 -25 20 -32z"/>
<path d="M5395 9120 c-3 -5 -1 -10 4 -10 6 0 11 5 11 10 0 6 -2 10 -4 10 -3 0
-8 -4 -11 -10z"/>
<path d="M5640 9160 c0 -11 -4 -20 -9 -20 -5 0 -12 -8 -16 -17 -4 -12 5 -7 24
11 17 16 28 33 25 38 -10 15 -24 8 -24 -12z"/>
<path d="M5745 8878 c-2 -13 -1 -48 4 -78 l9 -55 1 78 c1 77 -4 97 -14 55z"/>
<path d="M5690 8855 c0 -14 5 -25 10 -25 6 0 10 11 10 25 0 14 -4 25 -10 25
-5 0 -10 -11 -10 -25z"/>
<path d="M5782 8800 c0 -14 2 -19 5 -12 2 6 2 18 0 25 -3 6 -5 1 -5 -13z"/>
<path d="M5777 8678 c6 -46 10 -55 19 -45 8 8 -6 87 -16 87 -4 0 -6 -19 -3
-42z"/>
<path d="M5193 8260 c-9 -24 -8 -32 5 -42 13 -11 15 -10 9 5 -3 9 -2 17 3 17
10 0 9 35 -1 44 -3 3 -10 -8 -16 -24z"/>
<path d="M5235 8150 c3 -5 8 -10 11 -10 2 0 4 5 4 10 0 6 -5 10 -11 10 -5 0
-7 -4 -4 -10z"/>
<path d="M5260 7490 c0 -5 5 -10 10 -10 6 0 10 5 10 10 0 6 -4 10 -10 10 -5 0
-10 -4 -10 -10z"/>
<path d="M5048 7283 c7 -3 16 -2 19 1 4 3 -2 6 -13 5 -11 0 -14 -3 -6 -6z"/>
<path d="M2235 7949 c-9 -14 -2 -20 14 -10 8 6 9 11 3 15 -6 3 -14 1 -17 -5z"/>
<path d="M2287 7913 c-4 -3 -7 -16 -7 -27 1 -21 1 -21 15 -2 8 11 15 23 15 28
0 10 -14 11 -23 1z"/>
<path d="M2290 7840 l-25 -8 28 -1 c15 -1 27 4 27 9 0 6 -1 10 -2 9 -2 -1 -14
-5 -28 -9z"/>
<path d="M2215 7818 c-16 -5 -42 -9 -57 -10 -16 -1 -28 -7 -28 -15 0 -7 -7
-13 -15 -13 -8 0 -15 -7 -15 -15 0 -9 7 -18 15 -21 8 -4 15 -13 15 -21 0 -9 6
-13 14 -10 8 3 16 1 18 -5 3 -8 13 -8 34 -1 22 7 30 16 32 39 1 16 8 39 14 51
14 29 10 32 -27 21z"/>
<path d="M2291 7724 c0 -11 3 -14 6 -6 3 7 2 16 -1 19 -3 4 -6 -2 -5 -13z"/>
<path d="M2133 7665 c-7 -8 -10 -21 -7 -29 10 -26 24 -18 24 14 0 34 0 34 -17
15z"/>
<path d="M4340 6504 c0 -8 5 -12 10 -9 6 3 10 10 10 16 0 5 -4 9 -10 9 -5 0
-10 -7 -10 -16z"/>
<path d="M3207 4899 c4 -13 8 -18 11 -10 2 7 -1 18 -6 23 -8 8 -9 4 -5 -13z"/>
<path d="M2760 5168 c0 -19 2 -20 10 -8 13 19 13 30 0 30 -5 0 -10 -10 -10
-22z"/>
<path d="M2657 5119 c7 -7 15 -10 18 -7 3 3 -2 9 -12 12 -14 6 -15 5 -6 -5z"/>
<path d="M2480 4115 c0 -8 7 -15 16 -15 14 0 14 3 4 15 -7 8 -14 15 -16 15 -2
0 -4 -7 -4 -15z"/>
<path d="M4870 3233 c1 -10 26 -43 33 -43 3 0 0 11 -6 25 -11 23 -27 34 -27
18z"/>
<path d="M4910 3176 c0 -2 8 -10 18 -17 15 -13 16 -12 3 4 -13 16 -21 21 -21
13z"/>
<path d="M1345 2840 c-3 -5 -1 -10 4 -10 6 0 11 5 11 10 0 6 -2 10 -4 10 -3 0
-8 -4 -11 -10z"/>
<path d="M1425 2810 c-3 -5 -1 -10 4 -10 6 0 11 5 11 10 0 6 -2 10 -4 10 -3 0
-8 -4 -11 -10z"/>
<path d="M1175 2760 c3 -5 8 -10 11 -10 2 0 4 5 4 10 0 6 -5 10 -11 10 -5 0
-7 -4 -4 -10z"/>
<path d="M1130 2742 c0 -5 16 -13 35 -19 43 -14 45 -9 3 11 -36 18 -38 19 -38
8z"/>
<path d="M1210 2660 c0 -5 7 -10 16 -10 8 0 12 5 9 10 -3 6 -10 10 -16 10 -5
0 -9 -4 -9 -10z"/>
<path d="M1260 2621 c-14 -26 -13 -32 10 -61 11 -14 18 -17 14 -8 -4 13 -1 15
15 11 15 -4 22 1 27 21 3 14 4 33 0 41 -8 22 -53 19 -66 -4z"/>
<path d="M1629 2623 c6 -13 4 -24 -9 -40 -30 -38 0 -112 34 -84 12 10 15 6 21
-17 9 -43 38 -67 64 -53 27 15 31 14 31 -9 0 -24 29 -39 40 -20 5 7 20 11 37
8 30 -4 52 9 46 28 -2 6 3 17 12 24 8 7 15 17 15 23 0 6 -3 7 -6 4 -4 -3 -15
5 -26 18 -11 14 -26 25 -33 25 -8 0 -22 15 -31 33 -21 41 -31 47 -75 47 -20 0
-41 6 -47 13 -6 7 -27 14 -47 15 -32 2 -35 1 -26 -15z m51 -68 c11 -13 10 -14
-4 -9 -9 3 -16 10 -16 15 0 13 6 11 20 -6z"/>
<path d="M2320 2602 c0 -7 -5 -10 -10 -7 -6 4 -13 -7 -16 -23 -6 -29 -34 -41
-34 -15 0 8 -4 12 -9 9 -5 -4 -7 3 -4 14 5 18 0 20 -40 20 -44 0 -66 -17 -51
-41 3 -5 -4 -9 -16 -9 -28 0 -80 -27 -81 -43 -1 -6 -1 -18 0 -25 2 -10 -2 -10
-17 -1 -29 18 -54 5 -46 -25 5 -21 2 -26 -18 -30 -12 -3 -35 -7 -50 -11 -19
-3 -28 -12 -28 -25 0 -25 17 -35 62 -35 28 0 34 3 26 12 -14 17 18 29 36 14
11 -10 21 -6 49 18 39 35 50 32 35 -10 -6 -17 -7 -33 -3 -37 8 -8 64 -10 66
-2 8 28 2 68 -10 78 -9 8 -11 11 -5 8 7 -3 17 1 24 9 7 8 16 12 21 9 5 -3 9 2
9 10 0 8 25 27 55 41 30 15 55 34 55 42 0 8 4 12 9 9 16 -11 22 27 6 43 -11
11 -15 12 -15 3z m-90 -36 c0 -3 -4 -8 -10 -11 -5 -3 -10 -1 -10 4 0 6 5 11
10 11 6 0 10 -2 10 -4z"/>
<path d="M1220 2566 c0 -2 9 -6 20 -9 11 -3 18 -1 14 4 -5 9 -34 13 -34 5z"/>
<path d="M1080 2460 c0 -5 5 -10 10 -10 6 0 10 5 10 10 0 6 -4 10 -10 10 -5 0
-10 -4 -10 -10z"/>
<path d="M1145 2430 c3 -5 8 -10 11 -10 2 0 4 5 4 10 0 6 -5 10 -11 10 -5 0
-7 -4 -4 -10z"/>
<path d="M1273 2328 c-19 -24 -36 -62 -49 -110 -14 -54 -3 -66 13 -15 6 17 20
56 32 85 21 52 22 63 4 40z"/>
<path d="M1212 2260 c-30 -86 -27 -101 3 -20 14 36 23 69 22 75 -2 5 -13 -19
-25 -55z"/>
<path d="M1298 2261 c-25 -52 -22 -75 3 -28 11 21 19 44 17 52 -2 7 -11 -4
-20 -24z"/>
<path d="M1340 2266 c0 -9 5 -16 10 -16 6 0 10 4 10 9 0 6 -4 13 -10 16 -5 3
-10 -1 -10 -9z"/>
<path d="M1340 2225 c-6 -8 -10 -19 -8 -24 1 -6 8 1 15 14 13 28 11 31 -7 10z"/>
<path d="M1381 2224 c0 -11 3 -14 6 -6 3 7 2 16 -1 19 -3 4 -6 -2 -5 -13z"/>
<path d="M1180 2149 c0 -5 5 -7 10 -4 6 3 10 8 10 11 0 2 -4 4 -10 4 -5 0 -10
-5 -10 -11z"/>
<path d="M1206 2143 c-3 -10 -7 -29 -10 -43 -2 -14 -13 -61 -24 -105 -11 -44
-27 -116 -37 -160 -9 -44 -32 -136 -51 -205 -18 -69 -36 -145 -39 -170 l-5
-45 14 40 c8 22 15 48 15 58 1 10 13 60 27 110 25 85 70 265 78 312 2 11 14
65 25 119 12 55 19 101 17 103 -2 3 -7 -4 -10 -14z"/>
<path d="M1255 2131 c-3 -5 -1 -12 5 -16 5 -3 10 1 10 9 0 18 -6 21 -15 7z"/>
<path d="M1166 2085 c-3 -8 -1 -15 4 -15 6 0 10 7 10 15 0 8 -2 15 -4 15 -2 0
-6 -7 -10 -15z"/>
<path d="M1237 2048 c-25 -135 -79 -373 -96 -422 -11 -33 -16 -55 -10 -49 13
13 56 138 63 187 4 22 13 69 21 105 8 36 21 97 30 136 18 83 17 75 6 75 -4 0
-11 -15 -14 -32z"/>
<path d="M1211 2044 c0 -11 3 -14 6 -6 3 7 2 16 -1 19 -3 4 -6 -2 -5 -13z"/>
<path d="M1895 2021 c-3 -5 -1 -12 5 -16 5 -3 10 1 10 9 0 18 -6 21 -15 7z"/>
<path d="M1277 1980 c-3 -11 -1 -23 4 -26 5 -3 9 6 9 20 0 31 -6 34 -13 6z"/>
<path d="M2620 1976 c0 -14 5 -28 10 -31 6 -3 10 3 10 14 0 18 6 21 40 21 22
0 40 5 40 10 0 6 -22 10 -50 10 -46 0 -50 -2 -50 -24z"/>
<path d="M1185 1920 c-4 -23 -5 -43 -2 -46 2 -3 7 14 11 37 4 23 5 44 2 46 -2
2 -7 -14 -11 -37z"/>
<path d="M1363 1915 c0 -27 2 -38 4 -22 2 15 2 37 0 50 -2 12 -4 0 -4 -28z"/>
<path d="M1272 1920 c0 -14 2 -19 5 -12 2 6 2 18 0 25 -3 6 -5 1 -5 -13z"/>
<path d="M2633 1880 c0 -25 2 -35 4 -22 2 12 2 32 0 45 -2 12 -4 2 -4 -23z"/>
<path d="M1970 1900 c0 -5 5 -10 10 -10 6 0 10 5 10 10 0 6 -4 10 -10 10 -5 0
-10 -4 -10 -10z"/>
<path d="M1226 1858 c-17 -92 -17 -93 -8 -78 11 16 27 110 19 110 -2 0 -7 -15
-11 -32z"/>
<path d="M1262 1870 c0 -14 2 -19 5 -12 2 6 2 18 0 25 -3 6 -5 1 -5 -13z"/>
<path d="M1165 1834 c-3 -16 -12 -51 -20 -79 -8 -27 -17 -66 -20 -85 -4 -19
-13 -54 -21 -78 -8 -23 -14 -50 -13 -60 1 -21 50 138 74 240 10 43 16 81 12
84 -3 4 -9 -7 -12 -22z"/>
<path d="M1276 1819 c-4 -23 -5 -44 -2 -46 2 -2 7 14 11 37 4 23 5 43 2 46 -2
3 -7 -14 -11 -37z"/>
<path d="M1231 1745 c-13 -55 -30 -113 -38 -128 -16 -31 -11 -50 5 -20 16 30
64 212 60 231 -2 9 -14 -28 -27 -83z"/>
<path d="M1302 1815 c0 -16 2 -22 5 -12 2 9 2 23 0 30 -3 6 -5 -1 -5 -18z"/>
<path d="M1284 1733 c-3 -27 -15 -70 -25 -98 -11 -27 -19 -52 -19 -55 1 -14
31 51 44 95 23 83 27 105 17 105 -5 0 -13 -21 -17 -47z"/>
<path d="M1262 1740 c0 -14 2 -19 5 -12 2 6 2 18 0 25 -3 6 -5 1 -5 -13z"/>
<path d="M1185 1675 c-5 -22 -16 -59 -27 -83 -19 -47 -24 -72 -9 -56 13 14 53
152 48 167 -2 6 -8 -6 -12 -28z"/>
<path d="M1233 1650 c-12 -35 -20 -66 -18 -68 8 -8 46 90 43 111 -2 14 -11 -1
-25 -43z"/>
<path d="M1276 1605 c-9 -26 -7 -32 5 -12 6 10 9 21 6 23 -2 3 -7 -2 -11 -11z"/>
<path d="M2671 1584 c0 -11 3 -14 6 -6 3 7 2 16 -1 19 -3 4 -6 -2 -5 -13z"/>
<path d="M1201 1563 c-1 -6 -4 -20 -7 -30 -5 -17 -5 -17 6 0 6 10 9 23 6 30
-3 9 -5 9 -5 0z"/>
<path d="M1166 1523 c-6 -14 -5 -15 5 -6 7 7 10 15 7 18 -3 3 -9 -2 -12 -12z"/>
<path d="M1107 1487 c-7 -39 -11 -46 -22 -37 -10 9 -15 6 -20 -10 -4 -12 -4
-24 -1 -27 3 -4 6 1 6 10 0 23 20 22 21 0 0 -10 7 0 15 22 8 22 13 51 12 65
-2 17 -6 10 -11 -23z"/>
<path d="M1031 1394 c0 -11 3 -14 6 -6 3 7 2 16 -1 19 -3 4 -6 -2 -5 -13z"/>
<path d="M2600 1340 c0 -24 15 -27 24 -4 9 22 8 24 -9 24 -8 0 -15 -9 -15 -20z"/>
<path d="M1773 1323 c-18 -6 -16 -33 1 -33 8 0 17 4 20 8 7 12 -7 30 -21 25z"/>
<path d="M2520 1266 c0 -9 5 -16 10 -16 6 0 10 4 10 9 0 6 -4 13 -10 16 -5 3
-10 -1 -10 -9z"/>
<path d="M2605 1260 c-3 -5 1 -10 9 -10 8 0 18 5 21 10 3 6 -1 10 -9 10 -8 0
-18 -4 -21 -10z"/>
<path d="M2560 1214 c0 -9 -5 -12 -12 -8 -7 5 -8 3 -4 -5 6 -9 13 -8 27 5 23
21 23 24 4 24 -8 0 -15 -7 -15 -16z"/>
<path d="M2450 1210 c0 -6 7 -13 15 -17 24 -9 27 1 5 15 -13 8 -20 8 -20 2z"/>
<path d="M2510 1165 c0 -8 5 -15 10 -15 6 0 10 7 10 15 0 8 -4 15 -10 15 -5 0
-10 -7 -10 -15z"/>
<path d="M2581 1164 c0 -11 3 -14 6 -6 3 7 2 16 -1 19 -3 4 -6 -2 -5 -13z"/>
<path d="M1665 1130 c-3 -5 -1 -10 4 -10 6 0 11 5 11 10 0 6 -2 10 -4 10 -3 0
-8 -4 -11 -10z"/>
<path d="M2522 1100 c0 -14 2 -19 5 -12 2 6 2 18 0 25 -3 6 -5 1 -5 -13z"/>
<path d="M2552 1100 c0 -14 2 -19 5 -12 2 6 2 18 0 25 -3 6 -5 1 -5 -13z"/>
<path d="M1666 1091 c-4 -7 -5 -15 -2 -18 9 -9 19 4 14 18 -4 11 -6 11 -12 0z"/>
<path d="M1820 1080 c0 -5 5 -10 11 -10 5 0 7 5 4 10 -3 6 -8 10 -11 10 -2 0
-4 -4 -4 -10z"/>
<path d="M1546 1055 c-12 -31 -7 -95 7 -95 10 0 13 14 12 50 -2 54 -9 71 -19
45z"/>
<path d="M1992 1040 c0 -14 2 -19 5 -12 2 6 2 18 0 25 -3 6 -5 1 -5 -13z"/>
<path d="M1620 1029 c0 -15 5 -19 18 -15 13 5 22 -1 30 -16 8 -18 11 -19 11
-6 1 21 -28 58 -46 58 -7 0 -13 -9 -13 -21z"/>
<path d="M1753 1005 c0 -27 2 -38 4 -22 2 15 2 37 0 50 -2 12 -4 0 -4 -28z"/>
<path d="M1908 1023 c5 -21 7 -23 10 -9 2 10 0 22 -6 28 -6 6 -7 0 -4 -19z"/>
<path d="M1870 999 c0 -24 5 -51 10 -59 6 -10 7 3 3 40 -7 69 -13 77 -13 19z"/>
<path d="M1950 1029 c0 -5 5 -7 10 -4 6 3 10 8 10 11 0 2 -4 4 -10 4 -5 0 -10
-5 -10 -11z"/>
<path d="M2071 1024 c0 -11 3 -14 6 -6 3 7 2 16 -1 19 -3 4 -6 -2 -5 -13z"/>
<path d="M2151 1024 c0 -11 3 -14 6 -6 3 7 2 16 -1 19 -3 4 -6 -2 -5 -13z"/>
<path d="M2410 1026 c0 -9 5 -16 10 -16 6 0 10 4 10 9 0 6 -4 13 -10 16 -5 3
-10 -1 -10 -9z"/>
<path d="M2385 1001 c-4 -7 -3 -16 3 -20 5 -3 12 -15 15 -26 l5 -20 0 20 c1
33 -13 61 -23 46z"/>
<path d="M1961 984 c0 -11 3 -14 6 -6 3 7 2 16 -1 19 -3 4 -6 -2 -5 -13z"/>
<path d="M1842 945 c0 -16 2 -22 5 -12 2 9 2 23 0 30 -3 6 -5 -1 -5 -18z"/>
<path d="M1613 920 c0 -25 2 -35 4 -22 2 12 2 32 0 45 -2 12 -4 2 -4 -23z"/>
<path d="M2076 914 c-9 -23 -7 -34 5 -34 5 0 7 5 4 10 -4 6 -1 17 5 25 7 9 8
15 2 15 -5 0 -13 -7 -16 -16z"/>
<path d="M2210 904 c0 -8 5 -12 10 -9 6 3 10 10 10 16 0 5 -4 9 -10 9 -5 0
-10 -7 -10 -16z"/>
<path d="M2175 890 c-3 -5 -1 -10 4 -10 6 0 11 5 11 10 0 6 -2 10 -4 10 -3 0
-8 -4 -11 -10z"/>
<path d="M1760 870 c0 -11 5 -20 10 -20 6 0 10 6 10 14 0 8 6 17 13 19 6 3 2
6 -10 6 -17 1 -23 -5 -23 -19z"/>
<path d="M1544 864 c3 -9 6 -27 6 -40 0 -15 6 -24 16 -24 11 0 14 5 10 16 -3
9 -6 27 -6 40 0 15 -6 24 -16 24 -11 0 -14 -5 -10 -16z"/>
<path d="M1850 865 c0 -8 5 -15 10 -15 6 0 10 7 10 15 0 8 -4 15 -10 15 -5 0
-10 -7 -10 -15z"/>
<path d="M2083 855 c4 -9 7 -19 7 -21 0 -2 7 -4 15 -4 22 0 18 18 -7 31 -18
10 -20 9 -15 -6z"/>
<path d="M2140 860 c0 -5 5 -10 10 -10 6 0 10 5 10 10 0 6 -4 10 -10 10 -5 0
-10 -4 -10 -10z"/>
<path d="M2195 850 c3 -5 15 -10 26 -10 10 0 19 5 19 10 0 6 -12 10 -26 10
-14 0 -23 -4 -19 -10z"/>
<path d="M1980 850 c0 -3 -3 -23 -5 -45 -2 -28 -1 -34 5 -20 8 19 9 19 9 1 1
-11 3 -17 6 -14 3 3 1 23 -4 44 -5 21 -10 37 -11 34z"/>
<path d="M2065 831 c-3 -5 -1 -12 5 -16 5 -3 10 1 10 9 0 18 -6 21 -15 7z"/>
<path d="M2270 829 c0 -5 5 -7 10 -4 6 3 10 8 10 11 0 2 -4 4 -10 4 -5 0 -10
-5 -10 -11z"/>
<path d="M1811 814 c0 -11 3 -14 6 -6 3 7 2 16 -1 19 -3 4 -6 -2 -5 -13z"/>
<path d="M1901 814 c0 -11 3 -14 6 -6 3 7 2 16 -1 19 -3 4 -6 -2 -5 -13z"/>
<path d="M1940 819 c0 -5 5 -7 10 -4 6 3 10 8 10 11 0 2 -4 4 -10 4 -5 0 -10
-5 -10 -11z"/>
<path d="M2140 820 c0 -5 5 -10 10 -10 6 0 10 5 10 10 0 6 -4 10 -10 10 -5 0
-10 -4 -10 -10z"/>
<path d="M1766 805 c-3 -9 0 -15 9 -15 8 0 15 7 15 15 0 8 -4 15 -9 15 -5 0
-11 -7 -15 -15z"/>
<path d="M1860 810 c0 -5 5 -10 11 -10 5 0 7 5 4 10 -3 6 -8 10 -11 10 -2 0
-4 -4 -4 -10z"/>
<path d="M2240 804 c0 -8 5 -12 10 -9 6 4 8 11 5 16 -9 14 -15 11 -15 -7z"/>
<path d="M1731 794 c0 -11 3 -14 6 -6 3 7 2 16 -1 19 -3 4 -6 -2 -5 -13z"/>
<path d="M1912 760 c0 -14 2 -19 5 -12 2 6 2 18 0 25 -3 6 -5 1 -5 -13z"/>
<path d="M1775 760 c3 -5 10 -10 16 -10 5 0 9 5 9 10 0 6 -7 10 -16 10 -8 0
-12 -4 -9 -10z"/>
<path d="M1860 755 c0 -8 5 -15 10 -15 6 0 10 7 10 15 0 8 -4 15 -10 15 -5 0
-10 -7 -10 -15z"/>
<path d="M1930 720 c-9 -6 -10 -10 -3 -10 6 0 15 5 18 10 8 12 4 12 -15 0z"/>
<path d="M1066 1910 c-20 -82 -39 -156 -42 -165 -3 -8 -2 -15 3 -15 6 0 24 60
42 133 38 159 45 197 38 197 -2 0 -21 -67 -41 -150z"/>
<path d="M2633 820 c2 -8 14 -16 28 -17 19 -1 20 -1 4 4 -11 3 -24 10 -28 17
-6 7 -7 6 -4 -4z"/>
<path d="M2550 677 c0 -8 7 -14 15 -14 8 0 15 6 15 14 0 7 -7 13 -15 13 -8 0
-15 -6 -15 -13z"/>
<path d="M2711 664 c0 -11 3 -14 6 -6 3 7 2 16 -1 19 -3 4 -6 -2 -5 -13z"/>
<path d="M2480 655 c0 -9 9 -15 21 -15 18 0 19 2 9 15 -7 8 -16 15 -21 15 -5
0 -9 -7 -9 -15z"/>
<path d="M2680 655 c0 -8 2 -15 4 -15 2 0 6 7 10 15 3 8 1 15 -4 15 -6 0 -10
-7 -10 -15z"/>
<path d="M903 9589 c25 -15 22 -43 -4 -36 -15 4 -19 1 -17 -11 3 -12 12 -16
33 -14 17 2 34 8 40 13 13 13 46 11 44 -3 -1 -7 2 -32 6 -56 6 -31 11 -40 20
-32 6 5 15 7 18 3 4 -3 7 3 7 15 0 12 5 22 10 22 6 0 10 -16 10 -35 0 -19 5
-35 10 -35 6 0 10 9 10 21 0 11 4 18 9 15 4 -3 6 -17 4 -31 -5 -25 19 -89 37
-100 6 -4 10 15 10 46 0 45 2 50 15 39 24 -20 19 5 -11 51 -14 23 -23 47 -20
55 3 9 -2 14 -14 14 -21 0 -27 15 -10 25 6 3 10 2 10 -4 0 -6 12 -14 26 -17
17 -4 22 -9 14 -14 -9 -5 -6 -10 10 -15 28 -9 55 15 46 42 -5 15 -13 18 -40
15 -27 -3 -34 0 -39 17 -4 17 -13 21 -51 21 -29 0 -46 -4 -46 -12 0 -9 -3 -9
-12 0 -7 7 -39 12 -77 12 -50 -1 -62 -3 -48 -11z m171 -37 c2 -4 1 -14 -4 -22
-7 -11 -12 -12 -21 -3 -6 6 -8 16 -5 22 8 13 23 14 30 3z m56 -122 c0 -5 -4
-10 -10 -10 -5 0 -10 5 -10 10 0 6 5 10 10 10 6 0 10 -4 10 -10z"/>
<path d="M1220 9590 c0 -5 7 -10 15 -10 8 0 15 5 15 10 0 6 -7 10 -15 10 -8 0
-15 -4 -15 -10z"/>
<path d="M833 9560 c4 -14 7 -28 7 -32 0 -5 5 -8 10 -8 16 0 11 36 -7 51 -15
13 -16 11 -10 -11z"/>
<path d="M1270 9570 c20 -13 53 -13 45 0 -3 6 -18 10 -33 10 -21 0 -24 -2 -12
-10z"/>
<path d="M1270 9481 c0 -10 24 -21 47 -21 13 0 13 3 3 15 -13 16 -50 21 -50 6z"/>
<path d="M960 9455 c0 -8 4 -15 10 -15 5 0 7 7 4 15 -4 8 -8 15 -10 15 -2 0
-4 -7 -4 -15z"/>
<path d="M1020 9420 c0 -5 5 -10 10 -10 6 0 10 5 10 10 0 6 -4 10 -10 10 -5 0
-10 -4 -10 -10z"/>
<path d="M1264 9411 c11 -11 25 -21 31 -21 7 0 20 -10 29 -22 10 -13 8 -7 -3
12 -11 19 -24 34 -28 33 -4 0 -17 4 -28 9 -20 11 -20 11 -1 -11z"/>
<path d="M1051 9368 c2 -13 0 -29 -4 -35 -6 -9 -2 -13 12 -13 17 0 21 6 21 35
0 25 -4 35 -16 35 -10 0 -14 -7 -13 -22z"/>
<path d="M1637 9282 c-3 -4 3 -13 14 -20 10 -7 19 -8 19 -3 0 13 -28 33 -33
23z"/>
<path d="M1715 9281 c-3 -5 -1 -12 5 -16 5 -3 10 1 10 9 0 18 -6 21 -15 7z"/>
<path d="M1840 9131 c0 -93 3 -126 14 -137 8 -8 16 -14 19 -14 8 0 6 97 -4
175 -16 125 -29 115 -29 -24z"/>
<path d="M1650 9231 c0 -8 -8 -20 -17 -28 -16 -12 -15 -13 10 -7 20 5 27 2 27
-9 0 -20 -29 -30 -47 -15 -13 10 -14 8 -11 -12 1 -14 10 -25 18 -26 31 -2 33
-4 16 -23 -13 -14 -14 -24 -7 -45 7 -18 7 -26 0 -26 -6 0 -8 -4 -5 -9 7 -11
46 -2 46 10 0 4 -4 11 -10 14 -5 3 -10 10 -10 14 0 9 31 8 48 -3 16 -10 15 4
-1 18 -8 6 -19 40 -25 75 -10 58 -32 107 -32 72z"/>
<path d="M1715 9210 c-3 -5 -1 -10 4 -10 6 0 11 5 11 10 0 6 -2 10 -4 10 -3 0
-8 -4 -11 -10z"/>
<path d="M1488 9176 c-22 -16 -23 -42 -4 -62 17 -17 40 -19 30 -3 -4 7 4 20
17 30 24 18 24 19 2 19 -12 0 -23 6 -25 14 -2 12 -6 12 -20 2z"/>
<path d="M1723 9176 c3 -8 3 -17 -1 -20 -9 -10 -10 -46 0 -46 4 0 8 -9 8 -20
0 -11 5 -20 10 -20 6 0 10 27 10 60 0 48 -3 60 -16 60 -10 0 -14 -6 -11 -14z"/>
<path d="M155 9160 c3 -5 11 -10 16 -10 6 0 7 5 4 10 -3 6 -11 10 -16 10 -6 0
-7 -4 -4 -10z"/>
<path d="M1399 9151 c6 -10 17 -23 25 -31 9 -7 16 -19 16 -28 0 -8 3 -12 7 -8
9 9 -25 73 -43 80 -11 4 -12 1 -5 -13z"/>
<path d="M1240 9140 c0 -5 5 -10 10 -10 6 0 10 5 10 10 0 6 -4 10 -10 10 -5 0
-10 -4 -10 -10z"/>
<path d="M1365 9091 c-3 -5 -1 -12 4 -16 14 -8 62 5 55 16 -7 12 -51 12 -59 0z"/>
<path d="M1770 9084 c0 -20 17 -44 32 -44 15 0 8 27 -12 45 -19 18 -20 17 -20
-1z"/>
<path d="M0 9036 c0 -25 20 -39 20 -13 0 7 7 3 15 -7 11 -15 18 -17 26 -9 16
16 3 47 -17 39 -9 -4 -23 -1 -30 5 -11 9 -14 6 -14 -15z"/>
<path d="M1940 9044 c0 -8 5 -12 10 -9 6 3 10 10 10 16 0 5 -4 9 -10 9 -5 0
-10 -7 -10 -16z"/>
<path d="M1449 9013 c-1 -5 0 -18 1 -30 1 -13 -3 -23 -9 -23 -6 0 -11 7 -11
15 0 8 -4 15 -9 15 -14 0 -21 -43 -9 -57 7 -9 7 -17 -2 -28 -10 -12 -8 -18 11
-34 l24 -19 8 36 c10 51 27 82 46 82 14 1 14 2 -1 14 -10 7 -18 18 -18 25 0
12 -29 16 -31 4z"/>
<path d="M1750 8995 c7 -9 15 -13 17 -11 7 7 -7 26 -19 26 -6 0 -6 -6 2 -15z"/>
<path d="M1540 8986 c0 -9 5 -16 10 -16 6 0 10 4 10 9 0 6 -4 13 -10 16 -5 3
-10 -1 -10 -9z"/>
<path d="M2087 8984 c-4 -4 -7 -19 -7 -33 0 -18 3 -22 11 -14 6 6 18 9 25 6
11 -4 12 0 6 18 -9 24 -24 34 -35 23z"/>
<path d="M32 8953 c-30 -4 -32 -7 -32 -44 0 -36 2 -39 19 -29 27 14 34 27 20
36 -8 4 1 14 22 25 34 18 32 19 -29 12z"/>
<path d="M120 8900 c0 -5 5 -10 11 -10 5 0 7 5 4 10 -3 6 -8 10 -11 10 -2 0
-4 -4 -4 -10z"/>
<path d="M1781 8659 l-25 -10 29 -15 c32 -16 32 -16 37 10 4 23 -9 28 -41 15z"/>
<path d="M2137 8663 c-13 -12 -7 -75 9 -90 11 -12 12 -19 4 -27 -13 -13 -40
17 -40 44 0 23 -56 42 -71 24 -10 -12 -8 -18 7 -29 10 -8 15 -15 11 -15 -4 0
-3 -9 3 -20 14 -26 -7 -60 -37 -60 -20 0 -20 -2 9 -30 25 -26 28 -33 17 -46
-7 -8 -21 -13 -31 -11 -15 4 -16 2 -7 -14 7 -15 6 -19 -5 -19 -8 0 -17 -4 -21
-10 -8 -13 26 -50 47 -50 11 0 18 -7 18 -19 0 -21 26 -31 63 -24 22 4 24 8 19
49 -3 29 -1 44 7 44 6 0 11 8 11 19 0 29 52 47 90 31 18 -8 30 -20 30 -31 0
-11 5 -19 11 -19 10 0 8 48 -7 183 -6 48 -27 81 -48 74 -21 -7 -12 -32 11 -29
17 2 21 -1 17 -11 -7 -19 -57 -33 -62 -18 -2 6 -10 11 -18 11 -20 0 -18 10 9
38 15 18 18 26 9 29 -7 3 -19 11 -26 19 -16 16 -20 17 -29 7z"/>
<path d="M2205 8660 c4 -6 11 -8 16 -5 14 9 11 15 -7 15 -8 0 -12 -5 -9 -10z"/>
<path d="M2257 8663 c-12 -12 -7 -33 8 -33 17 0 19 9 7 28 -5 7 -11 9 -15 5z"/>
<path d="M1836 8637 c-7 -27 1 -35 18 -16 12 12 12 16 1 26 -10 9 -14 7 -19
-10z"/>
<path d="M1660 8600 c0 -5 5 -10 10 -10 6 0 10 5 10 10 0 6 -4 10 -10 10 -5 0
-10 -4 -10 -10z"/>
<path d="M1790 8569 c0 -5 5 -7 10 -4 6 3 10 8 10 11 0 2 -4 4 -10 4 -5 0 -10
-5 -10 -11z"/>
<path d="M1645 8520 c-3 -5 -1 -10 4 -10 6 0 11 5 11 10 0 6 -2 10 -4 10 -3 0
-8 -4 -11 -10z"/>
<path d="M2196 8318 c-16 -36 -11 -57 7 -35 7 7 20 21 30 30 17 15 17 17 -3
27 -18 10 -22 7 -34 -22z"/>
<path d="M2180 8220 c0 -5 10 -10 23 -10 18 0 19 2 7 10 -19 13 -30 13 -30 0z"/>
<path d="M2280 8148 c0 -7 5 -20 10 -28 8 -11 9 -9 8 13 -2 26 -18 40 -18 15z"/>
<path d="M2500 7745 c-10 -12 -10 -21 -2 -40 16 -36 32 -31 32 9 0 40 -12 52
-30 31z"/>
<path d="M2711 7144 c0 -11 3 -14 6 -6 3 7 2 16 -1 19 -3 4 -6 -2 -5 -13z"/>
</g>
</svg>
